STARTFONT 2.1
FONT -FontForge-Butcherman-Book-R-Normal--28-280-72-72-P-151-ISO10646-1
SIZE 28 72 72
FONTBOUNDINGBOX 43 55 -3 -19
COMMENT "Generated by fontforge, http://fontforge.sourceforge.net"
COMMENT "Copyright (c) 2011, Typomondo, with Reserved Font Name  "Butcherman"."
STARTPROPERTIES 40
FOUNDRY "FontForge"
FAMILY_NAME "Butcherman"
WEIGHT_NAME "Book"
SLANT "R"
SETWIDTH_NAME "Normal"
ADD_STYLE_NAME ""
PIXEL_SIZE 28
POINT_SIZE 280
RESOLUTION_X 72
RESOLUTION_Y 72
SPACING "P"
AVERAGE_WIDTH 151
CHARSET_REGISTRY "ISO10646"
CHARSET_ENCODING "1"
FONTNAME_REGISTRY ""
CHARSET_COLLECTIONS "ISO8859-2 ISO8859-9 ISO8859-4 ISO10646-1"
FONT_NAME "Butcherman-Regular"
FACE_NAME "Butcherman Regular"
COPYRIGHT "Copyright (c) 2011, Typomondo, with Reserved Font Name  "Butcherman"."
FONT_VERSION "001.004"
FONT_ASCENT 22
FONT_DESCENT 6
UNDERLINE_POSITION -3
UNDERLINE_THICKNESS 2
X_HEIGHT 20
CAP_HEIGHT 20
DEFAULT_CHAR 3
RAW_ASCENT 799
RAW_DESCENT 200
NORM_SPACE 5
RELATIVE_WEIGHT 40
RELATIVE_SETWIDTH 50
SUPERSCRIPT_X 0
SUPERSCRIPT_Y 9
SUPERSCRIPT_SIZE 16
SUBSCRIPT_X 0
SUBSCRIPT_Y 2
SUBSCRIPT_SIZE 16
AVG_LOWERCASE_WIDTH 162
AVG_UPPERCASE_WIDTH 155
ENDPROPERTIES
CHARS 331
STARTCHAR NULL.dup1
ENCODING 0
SWIDTH 161 0
DWIDTH 5 0
BBX 1 1 0 0
BITMAP
00
ENDCHAR
STARTCHAR CR
ENCODING 13
SWIDTH 161 0
DWIDTH 5 0
BBX 1 1 0 0
BITMAP
00
ENDCHAR
STARTCHAR space
ENCODING 32
SWIDTH 161 0
DWIDTH 5 0
BBX 1 1 0 0
BITMAP
00
ENDCHAR
STARTCHAR exclam
ENCODING 33
SWIDTH 350 0
DWIDTH 10 0
BBX 8 34 1 1
BITMAP
20
FE
FF
FF
FE
7E
7E
7E
7E
7E
7C
7C
7C
3C
3C
3C
3C
3C
3C
3C
3C
38
04
00
00
7F
FE
7E
7E
7F
7F
7F
7E
72
ENDCHAR
STARTCHAR quotedbl
ENCODING 34
SWIDTH 541 0
DWIDTH 15 0
BBX 13 11 1 10
BITMAP
5970
FDF8
7CF8
7CF0
7CF0
78F0
7870
7870
3870
3860
2040
ENDCHAR
STARTCHAR numbersign
ENCODING 35
SWIDTH 583 0
DWIDTH 16 0
BBX 16 25 0 -3
BITMAP
0186
0186
030E
030C
030C
030C
3FFF
3FFE
3FFE
3FFE
3FFE
0C30
0C30
1C70
1870
1860
FFFC
FFF8
FFF8
3D58
30C0
60C0
6180
6180
2180
ENDCHAR
STARTCHAR dollar
ENCODING 36
SWIDTH 534 0
DWIDTH 15 0
BBX 13 35 1 -8
BITMAP
0300
0300
0700
0600
0600
0300
0300
1FC0
3FF0
7FF8
7FF8
FFF8
FFF8
FFF8
FFF8
FDF8
FCF0
FC08
7F80
7FC0
1FE0
07E0
01F0
7CF0
7DE0
3FE0
3FC0
1740
0200
0200
0600
0600
0600
0600
0500
ENDCHAR
STARTCHAR percent
ENCODING 37
SWIDTH 828 0
DWIDTH 23 0
BBX 21 25 1 -3
BITMAP
000600
000E00
780E00
FC0C00
FE1C00
FE1C00
FE1C00
EE1800
EE1860
CE38F0
EE31F8
EC71F8
7C61F8
3861F8
00E1F8
00E1F8
00C1B8
00C1B8
00C1F0
0180F0
018000
018000
018000
030000
010000
ENDCHAR
STARTCHAR ampersand
ENCODING 38
SWIDTH 522 0
DWIDTH 15 0
BBX 12 14 1 4
BITMAP
0F00
0F80
0F80
0F00
0F00
FFF0
FFF0
FFF0
FFF0
FFF0
0F80
0F80
0F80
0F00
ENDCHAR
STARTCHAR quotesingle
ENCODING 39
SWIDTH 300 0
DWIDTH 8 0
BBX 6 11 1 10
BITMAP
90
7C
7C
7C
7C
78
78
78
38
38
20
ENDCHAR
STARTCHAR parenleft
ENCODING 40
SWIDTH 372 0
DWIDTH 10 0
BBX 9 27 1 -3
BITMAP
0080
0780
0F80
1F80
1F80
3F00
7F00
7F00
7F00
7F00
FC00
F800
F800
F800
F800
F800
F800
F800
F800
7800
7C00
7C00
3E00
3F00
1F00
1F00
0700
ENDCHAR
STARTCHAR parenright
ENCODING 41
SWIDTH 338 0
DWIDTH 9 0
BBX 7 27 1 -4
BITMAP
F0
F8
FC
FE
FE
FE
FE
FE
FE
3E
1E
1E
1E
1E
1E
1E
1E
1E
1C
1C
3C
3C
38
F8
F0
E0
C0
ENDCHAR
STARTCHAR asterisk
ENCODING 42
SWIDTH 513 0
DWIDTH 14 0
BBX 13 17 1 6
BITMAP
0080
0080
18C0
39C0
1DC0
1F80
1F80
8F00
FFF8
FFF0
FFF0
0F80
0F80
1DC0
1DC0
18C0
2800
ENDCHAR
STARTCHAR plus
ENCODING 43
SWIDTH 458 0
DWIDTH 13 0
BBX 11 11 1 5
BITMAP
1E00
0E00
0E00
FFE0
FFC0
FFC0
FFC0
7E40
1E00
1E00
1E00
ENDCHAR
STARTCHAR comma
ENCODING 44
SWIDTH 361 0
DWIDTH 10 0
BBX 8 14 1 -4
BITMAP
61
7F
FF
FF
FF
FF
FF
FF
7F
06
0E
0E
0E
0E
ENDCHAR
STARTCHAR hyphen
ENCODING 45
SWIDTH 478 0
DWIDTH 13 0
BBX 10 5 2 8
BITMAP
FFC0
FF80
FF80
FF80
F780
ENDCHAR
STARTCHAR period
ENCODING 46
SWIDTH 374 0
DWIDTH 10 0
BBX 8 9 1 1
BITMAP
1F
FF
7F
7F
7F
7F
7F
7F
73
ENDCHAR
STARTCHAR slash
ENCODING 47
SWIDTH 291 0
DWIDTH 8 0
BBX 8 25 0 -3
BITMAP
03
03
07
07
06
06
0E
0E
0C
1C
1C
18
38
38
38
30
70
20
60
60
60
C0
C0
C0
40
ENDCHAR
STARTCHAR zero
ENCODING 48
SWIDTH 528 0
DWIDTH 15 0
BBX 12 23 1 -2
BITMAP
0F00
3FC0
3FE0
7FF0
FFF0
FFF0
FFF0
FFF0
FFF0
79F0
79F0
79F0
79F0
79F0
79F0
79F0
79E0
79E0
7FE0
3FC0
3FC0
0F80
0300
ENDCHAR
STARTCHAR one
ENCODING 49
SWIDTH 366 0
DWIDTH 10 0
BBX 9 22 0 -1
BITMAP
0300
0F80
7F80
FF80
7F80
1F80
1F80
1F80
1F80
1F00
1F00
0F00
0F00
0F00
0F00
0F00
0F00
0F00
0F00
0F00
0B00
0100
ENDCHAR
STARTCHAR two
ENCODING 50
SWIDTH 575 0
DWIDTH 16 0
BBX 15 24 1 -3
BITMAP
0F00
3FC0
7FE0
7FF0
FFF8
FFF8
FFF8
FFF8
7FF8
7FF8
79F0
79F0
5BF0
03F0
03E0
03E0
07C0
0FFE
7FFC
7FFC
7FFC
FF6C
F668
0008
ENDCHAR
STARTCHAR three
ENCODING 51
SWIDTH 517 0
DWIDTH 15 0
BBX 12 23 1 -2
BITMAP
0E00
3F80
7FC0
FFE0
FFF0
FFF0
FFF0
FFF0
FFF0
FDF0
79F0
E1F0
03E0
07E0
07E0
01F0
00F0
3CF0
1EF0
1FE0
1FE0
0FC0
0400
ENDCHAR
STARTCHAR four
ENCODING 52
SWIDTH 466 0
DWIDTH 13 0
BBX 12 28 1 -7
BITMAP
FFE0
7F80
3F80
7F00
7F00
3F00
7E00
7E00
7C00
7C00
7C00
7C00
7FE0
7BC0
7BC0
79C0
7BC0
FFF0
FFE0
FFE0
FFE0
87E0
0180
0180
0180
0180
0180
0080
ENDCHAR
STARTCHAR five
ENCODING 53
SWIDTH 583 0
DWIDTH 16 0
BBX 15 23 1 -2
BITMAP
FFC0
FFFE
FFFC
FFFC
7FFC
FFFC
FFFC
7FFC
7FFC
7FF8
F818
7800
7BE0
7FE0
7FE0
00F0
00F0
1EF0
3EE0
1FE0
0FE0
0FC0
0400
ENDCHAR
STARTCHAR six
ENCODING 54
SWIDTH 582 0
DWIDTH 16 0
BBX 14 24 1 -3
BITMAP
0600
3FE0
7FF0
FFF8
FFFC
FFFC
FFFC
FFFC
FFFC
FDFC
7CF8
7CF8
78F8
7D00
3FF0
3FF8
3C78
3C78
3E78
3FF8
1FF8
0FF8
0FF0
0200
ENDCHAR
STARTCHAR seven
ENCODING 55
SWIDTH 624 0
DWIDTH 17 0
BBX 17 24 0 -3
BITMAP
01FF80
FFFF80
7FFF80
7FFF00
7FFF00
7FFF00
7FFF00
3FFE00
3FFE00
3FFC00
303E00
003C00
007C00
007800
007800
00F000
00F000
00E000
01E000
01E000
03C000
03C000
038000
048000
ENDCHAR
STARTCHAR eight
ENCODING 56
SWIDTH 459 0
DWIDTH 13 0
BBX 11 24 1 -3
BITMAP
1F00
7FC0
FFE0
FFE0
FFE0
FFE0
FFE0
FFC0
7FC0
73C0
7BC0
7BC0
7F80
3F80
3F80
3F80
3380
3380
3380
3F80
3F80
1F00
0800
0800
ENDCHAR
STARTCHAR nine
ENCODING 57
SWIDTH 584 0
DWIDTH 16 0
BBX 14 25 1 -4
BITMAP
0180
1FE0
3FF8
7FFC
7FF8
7FFC
FFFC
FFFC
FFFC
FDFC
FCFC
FCFC
7FFC
3FFC
3FF8
00F8
0CF8
7CF0
7FF0
3FE0
3FE0
17C0
0300
0200
0200
ENDCHAR
STARTCHAR colon
ENCODING 58
SWIDTH 386 0
DWIDTH 11 0
BBX 8 23 1 1
BITMAP
0E
FF
7F
7F
7F
7F
7F
7F
72
00
00
00
00
00
7F
FF
7F
7F
7F
7F
7F
7F
72
ENDCHAR
STARTCHAR semicolon
ENCODING 59
SWIDTH 375 0
DWIDTH 11 0
BBX 8 28 1 -4
BITMAP
1E
FF
7F
7F
7F
7F
7F
7F
72
00
00
00
00
00
63
7F
7F
7F
7F
7F
7F
FF
7F
07
0E
0E
0E
0E
ENDCHAR
STARTCHAR less
ENCODING 60
SWIDTH 459 0
DWIDTH 13 0
BBX 11 15 1 2
BITMAP
1FE0
1FC0
1F80
3F00
3F00
7E00
FC00
FC00
7E00
7E00
3F00
1F00
0F80
0FE0
07E0
ENDCHAR
STARTCHAR equal
ENCODING 61
SWIDTH 485 0
DWIDTH 14 0
BBX 10 9 2 8
BITMAP
FFC0
FFC0
FFC0
0000
0000
1040
FFC0
FFC0
FF80
ENDCHAR
STARTCHAR greater
ENCODING 62
SWIDTH 432 0
DWIDTH 12 0
BBX 10 16 1 2
BITMAP
0800
FE00
7E00
7E00
3F00
1F80
1FC0
0FC0
0FC0
0FC0
0F80
1F00
3F00
7E00
FC00
FC00
ENDCHAR
STARTCHAR question
ENCODING 63
SWIDTH 577 0
DWIDTH 16 0
BBX 13 25 1 -3
BITMAP
0F80
3FC0
7FF0
7FF0
FFF8
FFF8
FFF8
7FF8
7DF8
79F8
45F8
01F0
03E0
03E0
03C0
03C0
0380
0680
0000
0100
0F80
0F80
0780
0780
0780
ENDCHAR
STARTCHAR at
ENCODING 64
SWIDTH 930 0
DWIDTH 26 0
BBX 24 30 1 -6
BITMAP
00FE00
01FF00
03FFC0
07E3E0
0E00F0
1C7E78
39FF38
31FFBC
73FF9E
63FF9E
63FF9F
E3FF8F
E1FF0F
E1E70F
E1E70F
E1870F
E07F0F
E1FF0F
E1C787
E1C786
71EFE6
71FFFE
79FEFC
38BC70
3C0000
1C0000
0F0000
07FF00
03FF80
00FF00
ENDCHAR
STARTCHAR A
ENCODING 65
SWIDTH 494 0
DWIDTH 14 0
BBX 13 26 0 -6
BITMAP
FFF8
3FF0
1FE0
1FE0
1FE0
1FE0
1FE0
1FE0
1FC0
1FC0
1FC0
1DC0
1DC0
1DC0
1DC0
1FC0
1FC0
1FC0
1FC0
1DC0
19C0
19C0
1540
1480
0180
0100
ENDCHAR
STARTCHAR B
ENCODING 66
SWIDTH 517 0
DWIDTH 14 0
BBX 13 22 1 -1
BITMAP
0FC0
FFF0
7FF0
7FF8
3FF0
3FF0
3FF0
3FF0
3FF0
3CF0
3CF0
3CE0
3FE0
3FE0
3FC0
1FE0
3CE0
1CE0
1CE0
1FE0
1FC0
17C0
ENDCHAR
STARTCHAR C
ENCODING 67
SWIDTH 504 0
DWIDTH 14 0
BBX 12 24 1 -3
BITMAP
0F80
1FC0
7FF0
7FF0
FFF0
FFF0
FFF0
FFF0
FFF0
FDF0
F9F0
F8F0
F950
7800
7800
7880
79F0
7DE0
3FE0
3FE0
3FC0
0B80
0B00
0B00
ENDCHAR
STARTCHAR D
ENCODING 68
SWIDTH 522 0
DWIDTH 15 0
BBX 13 24 1 -4
BITMAP
FFE0
FFF0
7FF8
7FF8
7FF8
7FF8
3FF8
3FF8
3EF8
3E78
3C70
3C70
3C70
3E70
3C70
1C60
1EE0
1FE0
1FE0
1BC0
1380
1300
1280
0200
ENDCHAR
STARTCHAR E
ENCODING 69
SWIDTH 570 0
DWIDTH 16 0
BBX 14 23 1 -2
BITMAP
0F00
FFFC
7FF8
7FF8
3FF8
3FF8
3FF0
3FF0
3FF0
3CE0
3C00
3C00
3FC0
3FC0
3FC0
3FC0
1C00
1F80
1FE0
1FC0
17C0
1740
0440
ENDCHAR
STARTCHAR F
ENCODING 70
SWIDTH 559 0
DWIDTH 16 0
BBX 15 22 0 -2
BITMAP
FFFE
3FFC
1FF8
1FF8
1FF8
1FF8
1FF8
1FF8
0FF8
0F08
0F80
0FF0
0FF0
0FF0
0F10
0F00
0F00
0F00
0F00
0F80
0A80
0A80
ENDCHAR
STARTCHAR G
ENCODING 71
SWIDTH 499 0
DWIDTH 14 0
BBX 12 24 1 -3
BITMAP
0E00
3F80
7FE0
FFF0
FFF0
FFF0
FFF0
FFF0
FFF0
FBF0
F9F0
79F0
78F0
7A00
7BF0
7BF0
7BF0
7CF0
3DF0
3FE0
3FE0
1FC0
0A80
0800
ENDCHAR
STARTCHAR H
ENCODING 72
SWIDTH 726 0
DWIDTH 20 0
BBX 20 27 0 -6
BITMAP
009500
FF9FF0
3F8FE0
3F0FC0
3F0FC0
1F1F80
1F1F80
1F1F80
1F1F80
1F1F00
0F1F00
0F5F00
0FFF00
0FFF00
0FFF00
0F9E00
0F1E00
0F9E00
079E00
079E00
07BE00
0D1E00
001600
000000
002000
002000
002000
ENDCHAR
STARTCHAR I
ENCODING 73
SWIDTH 401 0
DWIDTH 11 0
BBX 11 23 0 -2
BITMAP
FFE0
7FC0
3FC0
1F80
1F80
1F80
1F80
1F80
1F80
1F80
1F00
1F00
1F00
1F00
0F00
0F00
0F00
0F00
0F00
0F00
0B00
0A80
0200
ENDCHAR
STARTCHAR J
ENCODING 74
SWIDTH 455 0
DWIDTH 13 0
BBX 13 21 -1 -1
BITMAP
07F8
03F0
03F0
03F0
01E0
03E0
03E0
03E0
03E0
03C0
03C0
03C0
03C0
33C0
F3C0
73C0
73C0
7F80
7F80
3F80
0A80
ENDCHAR
STARTCHAR K
ENCODING 75
SWIDTH 580 0
DWIDTH 16 0
BBX 16 22 0 -1
BITMAP
3F50
FF3F
3F3C
3F78
1F70
1F70
1FF0
0FE0
0FE0
0FE0
0FE0
0FE0
0FE0
0FE0
07F0
0FF0
07F0
0770
0770
0738
0738
0528
ENDCHAR
STARTCHAR L
ENCODING 76
SWIDTH 416 0
DWIDTH 12 0
BBX 13 23 0 -2
BITMAP
FEC0
7F80
3F00
3F00
3E00
3F00
3F00
3F00
3E00
3E00
1F00
1F00
1F00
1F00
1F00
1E00
1F00
1FF8
0FF0
0FF0
0FF0
09F0
09A0
ENDCHAR
STARTCHAR M
ENCODING 77
SWIDTH 740 0
DWIDTH 21 0
BBX 19 22 1 -1
BITMAP
1F3E00
FF3FE0
7F3F80
7FBF80
7FBF80
3FFF80
3FFF80
3FFF00
3FFF00
3FFF00
3FFF00
1FFF00
3FEF00
1FEF00
1EEF00
1EEF00
1EEF00
1EEF00
0ECF00
0E6E00
0E5200
0A0200
ENDCHAR
STARTCHAR N
ENCODING 78
SWIDTH 610 0
DWIDTH 17 0
BBX 16 26 1 -5
BITMAP
02C0
FE7F
FE7C
7E7C
7F78
7F78
3F78
3FF8
3FF8
3FF8
3FF8
3FF8
3FF0
1FF0
1DF0
1DF0
1DF0
1DF0
1CF0
1CF0
1CF0
1C50
1A50
12A0
1240
0200
ENDCHAR
STARTCHAR O
ENCODING 79
SWIDTH 504 0
DWIDTH 14 0
BBX 12 23 1 -2
BITMAP
0700
3FC0
7FE0
7FF0
FFF0
FFF0
FFF0
FFF0
FFF0
FDF0
F9F0
79F0
79F0
79F0
79F0
79E0
79F0
39E0
7FE0
3FC0
3FC0
0940
0940
ENDCHAR
STARTCHAR P
ENCODING 80
SWIDTH 545 0
DWIDTH 15 0
BBX 15 23 0 -2
BITMAP
03D0
FFF8
3FFC
1FFC
1FFE
1FFC
1FFC
1FFC
1FFC
0F3C
0F1C
0F1C
0F1C
0FF8
0FF8
0FF8
0FE0
0700
0700
0780
0780
0580
0100
ENDCHAR
STARTCHAR Q
ENCODING 81
SWIDTH 520 0
DWIDTH 15 0
BBX 13 25 1 -4
BITMAP
0200
1FC0
3FE0
FFF0
7FF8
FFF8
FFF8
FFF8
FFF8
FCF8
FCF8
FCF8
7CF8
7CF8
7CF8
7CF0
7CF0
3EF0
1FF0
1FF0
0FF8
07F8
0070
0020
0020
ENDCHAR
STARTCHAR R
ENCODING 82
SWIDTH 599 0
DWIDTH 17 0
BBX 15 23 1 -2
BITMAP
0F20
FFF8
FFFC
7FFE
3FFE
3FFE
1FFE
1FFE
1FFE
1F3E
1F3E
1F3E
1F7C
1FFC
0FFC
0FF8
0F78
0F78
0F78
0F38
0F38
075C
0324
ENDCHAR
STARTCHAR S
ENCODING 83
SWIDTH 504 0
DWIDTH 14 0
BBX 13 23 1 -2
BITMAP
0300
1FC0
3FE0
7FF8
7FF0
FFF0
FFF0
FFF0
FFF0
F9F0
F9F0
FC08
FF80
7FC0
3FE0
07E0
05F0
F9E0
7FE0
7FC0
3FC0
1FC0
0900
ENDCHAR
STARTCHAR T
ENCODING 84
SWIDTH 622 0
DWIDTH 17 0
BBX 15 23 1 -3
BITMAP
FFFE
7FFE
7FFC
7FFC
3FFC
3FFC
3FFC
3FFC
3FFC
33C4
03C0
03C0
03C0
03C0
03C0
03C0
03C0
03C0
03C0
03C0
03C0
03C0
02C0
ENDCHAR
STARTCHAR U
ENCODING 85
SWIDTH 637 0
DWIDTH 18 0
BBX 18 23 0 -2
BITMAP
0F2000
FF3FC0
3F3F00
3F3F00
3F3F00
3F3E00
1F3E00
1F3E00
1F3E00
1F3C00
1F3C00
1F3C00
1F3C00
1F3C00
1F3C00
1F3C00
0F3C00
0FF800
0FF800
0FF800
076000
026000
002000
ENDCHAR
STARTCHAR V
ENCODING 86
SWIDTH 570 0
DWIDTH 16 0
BBX 16 23 0 -2
BITMAP
8E3D
7E7E
3E7E
3E7C
1E7C
1E78
1E78
1E78
1EF8
1EF0
1EF0
1EF0
1EF0
0EF0
0FE0
0FE0
0FE0
0FE0
0FC0
07C0
07C0
07C0
0780
ENDCHAR
STARTCHAR W
ENCODING 87
SWIDTH 777 0
DWIDTH 22 0
BBX 22 22 0 -1
BITMAP
003180
1F39F0
FF79FC
3F7BE0
1F7BE0
0F7BC0
0F7FC0
0F7F80
0FFF80
07FF00
07FF00
03FF80
03FF00
03FF00
01FF00
01FE00
01DE00
01DE00
00CC00
00CC00
00DC00
002000
ENDCHAR
STARTCHAR X
ENCODING 88
SWIDTH 587 0
DWIDTH 16 0
BBX 17 23 0 -2
BITMAP
024000
FF3E00
3F7F80
1F7C00
0F7800
0FF000
07F000
07F000
03F000
03E000
03E000
03E000
03C000
03E000
03C000
03E000
03E000
03E000
076000
077000
077000
075000
040800
ENDCHAR
STARTCHAR Y
ENCODING 89
SWIDTH 688 0
DWIDTH 19 0
BBX 20 22 0 -1
BITMAP
170800
FF0F80
1F8FF0
0FDF80
07DF80
03FF00
01FE00
01FC00
00FC00
00FC00
00FC00
007C00
007C00
007C00
007C00
003800
003800
003800
003800
003800
003800
003800
ENDCHAR
STARTCHAR Z
ENCODING 90
SWIDTH 695 0
DWIDTH 19 0
BBX 18 22 1 -1
BITMAP
0FF000
FFFF00
FFFFC0
7FFF80
7FFF00
3FFF00
3FFF00
3FFE00
1FFE00
1CFC00
11F800
01F000
03E000
03C000
07C000
038000
070000
07F000
0FF000
0FF000
0FF000
052000
ENDCHAR
STARTCHAR bracketleft
ENCODING 91
SWIDTH 410 0
DWIDTH 12 0
BBX 9 25 2 -1
BITMAP
FF00
FF80
FF80
FF80
FF80
FD80
F000
F000
F000
F000
F000
F000
F000
F000
F000
F000
F000
F000
F000
F000
F000
FF80
FF80
7700
4500
ENDCHAR
STARTCHAR backslash
ENCODING 92
SWIDTH 292 0
DWIDTH 8 0
BBX 8 25 0 -3
BITMAP
C0
E0
60
60
70
70
70
30
30
38
18
1C
1C
0C
0C
0E
0E
06
06
06
03
03
03
03
02
ENDCHAR
STARTCHAR bracketright
ENCODING 93
SWIDTH 407 0
DWIDTH 11 0
BBX 10 25 0 -1
BITMAP
7F80
7F80
7F80
7F80
7F80
5F80
0780
0780
0780
0780
03C0
03C0
03C0
0380
03C0
03C0
03C0
03C0
0380
03C0
07C0
FFC0
7FC0
7FC0
00C0
ENDCHAR
STARTCHAR asciicircum
ENCODING 94
SWIDTH 523 0
DWIDTH 15 0
BBX 13 10 1 20
BITMAP
0F80
1F80
1FC0
3FC0
3FE0
7DE0
78F0
70F8
F070
6060
ENDCHAR
STARTCHAR underscore
ENCODING 95
SWIDTH 452 0
DWIDTH 13 0
BBX 10 5 1 -1
BITMAP
F0C0
FFC0
FFC0
FFC0
FFC0
ENDCHAR
STARTCHAR grave
ENCODING 96
SWIDTH 444 0
DWIDTH 12 0
BBX 10 7 1 21
BITMAP
1000
3800
3E00
7F00
BF80
07C0
0080
ENDCHAR
STARTCHAR a
ENCODING 97
SWIDTH 479 0
DWIDTH 13 0
BBX 14 24 0 -3
BITMAP
1FFC
FFF0
3FF0
1FE0
1FE0
1FE0
1FE0
1FE0
1FE0
1FE0
1FE0
1FE0
1FE0
1CE0
1CE0
1CE0
1CE0
3FE0
1FE0
1FE0
1CE0
1CE0
1D60
0800
ENDCHAR
STARTCHAR b
ENCODING 98
SWIDTH 610 0
DWIDTH 17 0
BBX 16 23 0 -2
BITMAP
0018
BFFE
7FFF
3FFF
1FFF
1FFF
1FFF
0FFF
0FFF
0F9F
0F9F
0F9E
0F9E
0FFE
0FF8
0FFC
07BE
079E
079C
079C
07FC
07FC
04B8
ENDCHAR
STARTCHAR c
ENCODING 99
SWIDTH 534 0
DWIDTH 15 0
BBX 14 23 1 -2
BITMAP
0780
1FE0
7FF0
7FF8
FFFC
FFF8
FFF8
FFF8
FFF8
FFF8
FCF8
7CF8
7CF8
7C00
7C00
7C00
3CF0
3CF0
3DE0
3FE0
1FC0
1780
0480
ENDCHAR
STARTCHAR d
ENCODING 100
SWIDTH 573 0
DWIDTH 16 0
BBX 16 24 0 -3
BITMAP
0180
FFF8
7FFC
3FFE
3FFE
3FFF
1FFF
1FFF
1FFF
0FFE
0FBE
0F1E
0F1E
0F1C
0F1C
071C
071C
0738
07B8
07F8
07F8
07F8
0470
0440
ENDCHAR
STARTCHAR e
ENCODING 101
SWIDTH 632 0
DWIDTH 18 0
BBX 17 23 0 -2
BITMAP
00E000
7FFF80
FFFF00
3FFF00
3FFE00
1FFE00
1FFE00
1FFC00
1FFC00
1FFC00
1F8400
0F8000
0FF800
0FF800
0FF800
0FF800
0F9000
0F8000
07F800
07F800
07F800
04F800
040800
ENDCHAR
STARTCHAR f
ENCODING 102
SWIDTH 559 0
DWIDTH 16 0
BBX 15 23 0 -3
BITMAP
FFFE
3FFC
1FF8
1FF8
1FF8
1FF8
1FF8
1FF8
0FF8
0F08
0F00
0FF0
0FF0
0FF0
0F10
0F00
0F00
0F00
0F00
0F00
0B00
0A80
0280
ENDCHAR
STARTCHAR g
ENCODING 103
SWIDTH 546 0
DWIDTH 15 0
BBX 14 24 1 -3
BITMAP
0600
3FE0
7FF0
FFF8
FFF8
FFFC
FFFC
FFFC
FFFC
FDF8
FCF8
78F8
78F8
7800
79E0
3DF8
3DF8
3D78
3C78
3FF8
1FF0
1FF0
0BA0
0200
ENDCHAR
STARTCHAR h
ENCODING 104
SWIDTH 730 0
DWIDTH 20 0
BBX 20 23 0 -2
BITMAP
03DFC0
FF8FF0
3F8FE0
1F8FC0
1F8FC0
1F8FC0
1F8F80
1F0F80
1F0F80
1F0F80
0F0F00
0FFF00
0FFF00
0FFF00
0FFF00
0F1F00
0F9E00
0F9E00
079E00
079E00
07BE00
0C1E00
001200
ENDCHAR
STARTCHAR i
ENCODING 105
SWIDTH 412 0
DWIDTH 12 0
BBX 11 22 0 -1
BITMAP
9B00
7FE0
3FC0
1F80
1F80
0F80
1F80
1F80
1F00
1F00
1F00
1F00
0F00
0F00
0F00
0F00
0F00
0F00
0F00
0F00
0F00
0300
ENDCHAR
STARTCHAR j
ENCODING 106
SWIDTH 458 0
DWIDTH 13 0
BBX 13 22 -1 -1
BITMAP
0B80
07F8
07F0
03F0
03F0
03F0
03E0
03E0
03E0
03E0
03E0
03E0
01E0
03E0
33E0
F3E0
7BE0
7BC0
7FE0
3FC0
1FC0
0740
ENDCHAR
STARTCHAR k
ENCODING 107
SWIDTH 636 0
DWIDTH 18 0
BBX 18 22 0 -1
BITMAP
02AE00
FFBFC0
3F3E00
3F3C00
1F3800
1FB800
0FF800
0FF800
0FF000
0FF000
0FF000
0FE000
0FE000
07E000
07F000
07F000
07F000
07B800
073800
071C00
031C00
029600
ENDCHAR
STARTCHAR l
ENCODING 108
SWIDTH 438 0
DWIDTH 12 0
BBX 13 23 0 -2
BITMAP
0FF0
FFC0
3F80
1F80
3F80
1F80
1F00
1F00
1F00
1F00
0F00
0F00
0F00
0F00
0F00
0F00
0F00
0FF8
0FF8
07F0
0770
0470
0420
ENDCHAR
STARTCHAR m
ENCODING 109
SWIDTH 770 0
DWIDTH 22 0
BBX 21 23 0 -2
BITMAP
00CF80
1FCFF8
FFCFE0
3FDFC0
1FDFC0
3FDFC0
1FDFC0
3FFFC0
1FFF80
1FFF80
1FFF80
1FFF80
1FFF80
1FFF80
0FFF00
0F7F00
0F6F00
0F6F00
0F6E00
0F6E00
0D4E00
080200
080000
ENDCHAR
STARTCHAR n
ENCODING 110
SWIDTH 664 0
DWIDTH 19 0
BBX 19 24 0 -3
BITMAP
9F9820
7F9FC0
3F9F80
3F9F80
3FDF00
3FDF00
3FDF00
3FDF00
1FFE00
1FFE00
1FFE00
1FFE00
1FFE00
1FFE00
1EFE00
0EFC00
0EFC00
0E7C00
0E7C00
0E7C00
0E7800
0E7800
0D5800
001000
ENDCHAR
STARTCHAR o
ENCODING 111
SWIDTH 545 0
DWIDTH 15 0
BBX 14 23 1 -2
BITMAP
0580
3FE0
7FF0
7FF8
FFFC
FFF8
FFF8
FFFC
FFFC
FDFC
F8FC
78F8
78F8
78F8
78F8
78F0
7DF0
3DF0
3FF0
3FE0
1FE0
05C0
0140
ENDCHAR
STARTCHAR p
ENCODING 112
SWIDTH 557 0
DWIDTH 16 0
BBX 14 22 1 -1
BITMAP
0D40
FFF0
7FF8
3FFC
3FFC
3FFC
3FFC
3FFC
3FF8
3E78
3E38
1E38
1E78
1EF8
1FF0
1FF0
1FE0
1F00
1F00
1E00
0F00
0F00
ENDCHAR
STARTCHAR q
ENCODING 113
SWIDTH 562 0
DWIDTH 16 0
BBX 14 25 1 -4
BITMAP
0380
1FE0
7FF8
FFF8
7FFC
FFFC
FFFC
FFFC
FEFC
FC7C
FCFC
FC7C
7C7C
7C3C
7C7C
7CF8
3EFC
3EF8
1FF8
0FF8
07FC
03FC
0038
0010
0008
ENDCHAR
STARTCHAR r
ENCODING 114
SWIDTH 616 0
DWIDTH 17 0
BBX 16 23 1 -2
BITMAP
0720
FFF8
FFFE
7FFF
3FFF
3FFF
1FFF
1FFE
1FFE
1F3E
1F1E
1F3E
1F3C
1FFC
1FFC
1FF8
0F70
1F78
0F78
0F78
0F78
0F78
0858
ENDCHAR
STARTCHAR s
ENCODING 115
SWIDTH 481 0
DWIDTH 13 0
BBX 12 23 1 -2
BITMAP
0E00
1FC0
3FE0
7FF0
FFF0
FFF0
FFF0
FFF0
FFE0
FBE0
F9E0
F860
FF00
7F80
3FC0
1FC0
03C0
79C0
79C0
7FC0
3F80
3F80
1000
ENDCHAR
STARTCHAR t
ENCODING 116
SWIDTH 683 0
DWIDTH 19 0
BBX 18 25 0 -4
BITMAP
07FE00
FFFFC0
7FFFC0
3FFF80
3FFF80
1FFF00
1FFF00
1FFF00
1FFF00
1FF700
18F900
00F800
00F800
00F800
00F800
00F800
00F800
00F000
007800
007000
00F000
007000
007000
001000
000800
ENDCHAR
STARTCHAR u
ENCODING 117
SWIDTH 708 0
DWIDTH 20 0
BBX 20 21 0 0
BITMAP
078000
FF8F80
3F8FF0
3F9FE0
3F8FC0
1F8FC0
1F8F80
1F8F80
1F8F80
0F8F00
0F8F00
0F9F00
0F9F00
0F9F00
0F9F00
0F9F00
079E00
07FF00
07FE00
03FE00
01AC00
ENDCHAR
STARTCHAR v
ENCODING 118
SWIDTH 644 0
DWIDTH 18 0
BBX 18 23 0 -2
BITMAP
031800
FF1FC0
3F1F00
1F3F00
1F3E00
0F3E00
0F3E00
0F3C00
0FBC00
0FBC00
07BC00
07BC00
07B800
07B800
03F800
03F800
03F800
03F000
01F000
01F000
00F000
00E000
00C000
ENDCHAR
STARTCHAR w
ENCODING 119
SWIDTH 704 0
DWIDTH 20 0
BBX 20 21 0 0
BITMAP
006400
FE63C0
7E73F0
1EF7C0
1EF7C0
0EF780
0FFF80
0FFF00
0FFF00
07FF00
07FE00
07FF00
03FE00
03FE00
03FE00
03DE00
01DE00
01DE00
01DC00
00DC00
015C00
ENDCHAR
STARTCHAR x
ENCODING 120
SWIDTH 599 0
DWIDTH 17 0
BBX 17 23 0 -2
BITMAP
0E6000
FF3F80
3F7F00
0F7C00
0FF800
07F800
07F000
03F000
03F000
03E000
03E000
03E000
03E000
01E000
03E000
03E000
03E000
03E000
037000
077000
077000
075000
040800
ENDCHAR
STARTCHAR y
ENCODING 121
SWIDTH 604 0
DWIDTH 17 0
BBX 17 23 0 -2
BITMAP
1C2000
FE3E00
3F3F80
0F7E00
077C00
07F800
03F000
03F000
03F000
03F000
01F000
01F000
01E000
01E000
01E000
01E000
01E000
01E000
01E000
01E000
01E000
01E000
010000
ENDCHAR
STARTCHAR z
ENCODING 122
SWIDTH 622 0
DWIDTH 17 0
BBX 15 23 1 -2
BITMAP
1FE0
FFFE
FFFE
7FFE
7FFC
3FFC
3FFC
3FF8
1FF8
1EF8
11E0
11E0
03C0
03C0
0380
0380
0780
07E0
07F0
0FF0
0FF0
05E0
0020
ENDCHAR
STARTCHAR braceleft
ENCODING 123
SWIDTH 372 0
DWIDTH 10 0
BBX 9 27 1 -3
BITMAP
0080
0780
0F80
1F80
1F80
3F00
7F00
7F00
7F00
7F00
FC00
F800
F800
F800
F800
F800
F800
F800
F800
7800
7C00
7C00
3E00
3F00
1F00
1F00
0700
ENDCHAR
STARTCHAR bar
ENCODING 124
SWIDTH 208 0
DWIDTH 6 0
BBX 2 26 2 -3
BITMAP
40
C0
C0
C0
C0
C0
C0
C0
C0
C0
C0
C0
C0
C0
C0
C0
C0
C0
C0
C0
C0
C0
C0
C0
C0
C0
ENDCHAR
STARTCHAR braceright
ENCODING 125
SWIDTH 338 0
DWIDTH 9 0
BBX 7 27 1 -4
BITMAP
F0
F8
FC
FE
FE
FE
FE
FE
FE
3E
1E
1E
1E
1E
1E
1E
1E
1E
1C
1C
3C
3C
38
F8
F0
E0
C0
ENDCHAR
STARTCHAR asciitilde
ENCODING 126
SWIDTH 535 0
DWIDTH 15 0
BBX 13 6 1 16
BITMAP
20C0
71E0
FFF0
7FF8
7FF0
3E60
ENDCHAR
STARTCHAR exclamdown
ENCODING 161
SWIDTH 347 0
DWIDTH 10 0
BBX 8 34 1 1
BITMAP
40
7F
7F
7F
7F
7F
7E
FF
7F
00
00
00
3C
3C
3C
3C
3C
3C
3C
3C
3C
3C
7C
7C
7E
FE
7E
7E
7E
7E
FE
FF
FF
24
ENDCHAR
STARTCHAR cent
ENCODING 162
SWIDTH 552 0
DWIDTH 15 0
BBX 14 40 1 -11
BITMAP
0300
0200
0200
0200
0200
0200
0200
0200
07C0
1FE0
7FF0
7FF8
FFFC
FFF8
FFF8
FFF8
FFF8
FEF8
7CF8
7C78
7CB8
7C00
7C00
7C00
3CF0
3CF0
3EE0
1FE0
1FE0
16C0
0680
0200
0200
0200
0200
0200
0200
0300
0300
0100
ENDCHAR
STARTCHAR sterling
ENCODING 163
SWIDTH 589 0
DWIDTH 17 0
BBX 15 23 1 -2
BITMAP
0600
3FE0
7FF0
FFF8
FFFC
FFFC
FFFE
FFFE
FFFC
7FFC
7CFC
7CF8
7878
FF00
FF00
3C00
3E00
3FF8
3FF0
3FF0
3DE0
25E0
0540
ENDCHAR
STARTCHAR yen
ENCODING 165
SWIDTH 692 0
DWIDTH 19 0
BBX 21 22 -1 2
BITMAP
FF0600
3F8FF8
0FCFC0
07CFC0
07DF80
01FF00
01FE00
01FE00
00FE00
1FFFE0
1FFFE0
007C00
007C00
1FFFE0
1FFFE0
007C00
007C00
003C00
003C00
003C00
003C00
003400
ENDCHAR
STARTCHAR brokenbar
ENCODING 166
SWIDTH 201 0
DWIDTH 6 0
BBX 3 26 1 -3
BITMAP
80
60
60
E0
60
60
E0
60
60
60
00
00
00
00
00
00
60
60
60
60
60
60
60
60
60
60
ENDCHAR
STARTCHAR section
ENCODING 167
SWIDTH 477 0
DWIDTH 13 0
BBX 12 26 1 -5
BITMAP
0F80
1FE0
3FE0
3FF0
7FE0
7FE0
7FE0
7FE0
7DC0
3DC0
3F00
3FC0
7FC0
F3C0
F1C0
F1C0
F380
FF80
FF80
7F00
1F80
0B80
F380
7F00
7F00
3E00
ENDCHAR
STARTCHAR dieresis
ENCODING 168
SWIDTH 633 0
DWIDTH 18 0
BBX 14 7 2 22
BITMAP
F8FC
F8F8
F8F8
F8FC
F8FC
F8F8
3800
ENDCHAR
STARTCHAR copyright
ENCODING 169
SWIDTH 783 0
DWIDTH 22 0
BBX 20 24 1 -2
BITMAP
004000
03FC00
0F2F00
1C2180
39F8C0
73FC40
63FE60
67FC20
C7FE20
C7FE30
C7FE30
C39E30
C39C30
C38030
C38030
C38020
439C20
63DC60
61FC40
31F8C0
38B180
1C0700
07FE00
03FC00
ENDCHAR
STARTCHAR guillemotleft
ENCODING 171
SWIDTH 759 0
DWIDTH 21 0
BBX 20 15 1 2
BITMAP
0FC7E0
0F8FC0
1F0F80
3F1F80
3E3F00
7E3F00
FC7E00
F87C00
FC3E00
7C3E00
3E3F00
1F0F80
1F8FC0
0F87C0
07E3F0
ENDCHAR
STARTCHAR uni00AD
ENCODING 173
SWIDTH 446 0
DWIDTH 13 0
BBX 10 4 1 8
BITMAP
7040
7FC0
FFC0
7FC0
ENDCHAR
STARTCHAR registered
ENCODING 174
SWIDTH 780 0
DWIDTH 22 0
BBX 20 23 1 -2
BITMAP
03F800
0F0600
1C0100
3FF880
77FC40
67FE60
63FE20
C3FE20
C3FE30
C39C30
C39C30
C3DC30
C3FC30
C1F820
41D820
61EC20
60EE20
30EE40
38AEC0
1E4180
0F8F00
03FE00
00F800
ENDCHAR
STARTCHAR macron
ENCODING 175
SWIDTH 446 0
DWIDTH 13 0
BBX 10 4 1 8
BITMAP
7040
7FC0
FFC0
7FC0
ENDCHAR
STARTCHAR acute
ENCODING 180
SWIDTH 439 0
DWIDTH 12 0
BBX 9 7 2 21
BITMAP
0400
0E00
1E00
7F80
FE00
F000
8000
ENDCHAR
STARTCHAR mu
ENCODING 181
SWIDTH 679 0
DWIDTH 19 0
BBX 21 22 -1 -1
BITMAP
07C000
FF8FC0
3F8FF8
1F8FE0
1F8FE0
1F8FC0
1FCFC0
0FCF80
0FCF80
0FCF80
0FCF80
0F8F80
0F8F80
0F8F80
0FCF80
07CF00
07DF00
07DF00
03FF00
03FE00
015E00
000800
ENDCHAR
STARTCHAR paragraph
ENCODING 182
SWIDTH 591 0
DWIDTH 17 0
BBX 16 22 1 -1
BITMAP
0EE0
7FFF
FFFE
FFFC
FF98
FF98
FF98
FF98
FF98
7F98
7F98
7F98
3F98
1598
0190
0190
0190
0190
0190
0190
0190
0190
ENDCHAR
STARTCHAR periodcentered
ENCODING 183
SWIDTH 388 0
DWIDTH 11 0
BBX 8 9 1 6
BITMAP
FF
7F
7F
7F
7F
7F
7F
7F
60
ENDCHAR
STARTCHAR cedilla
ENCODING 184
SWIDTH 270 0
DWIDTH 8 0
BBX 5 9 1 -9
BITMAP
70
60
60
C0
F8
18
18
78
F8
ENDCHAR
STARTCHAR guillemotright
ENCODING 187
SWIDTH 767 0
DWIDTH 22 0
BBX 20 16 1 2
BITMAP
080000
FE7C00
7E3E00
7E1F00
3F0F80
1F07C0
1F87C0
0FC7E0
0FC3F0
0F83F0
1FC7E0
1F0FE0
3E0FC0
7E1F80
FC1F00
F87F00
ENDCHAR
STARTCHAR Agrave
ENCODING 192
SWIDTH 494 0
DWIDTH 14 0
BBX 14 35 -1 -6
BITMAP
3000
3800
7C00
FE00
7F80
0F80
0080
0000
0000
7FFC
1FF8
0FF0
0FF0
0FF0
0FF0
0FF0
0FF0
0FE0
0FE0
0FE0
0EE0
0EE0
0EE0
0EE0
0FE0
0FE0
0FE0
0FE0
0EE0
0CE0
0CE0
0AA0
0A40
00C0
0080
ENDCHAR
STARTCHAR Aacute
ENCODING 193
SWIDTH 494 0
DWIDTH 14 0
BBX 17 35 0 -6
BITMAP
000400
001E00
003E00
007F00
00FE80
01F000
008000
000000
000000
FFF800
3FF000
1FE000
1FE000
1FE000
1FE000
1FE000
1FE000
1FC000
1FC000
1FC000
1DC000
1DC000
1DC000
1DC000
1FC000
1FC000
1FC000
1FC000
1DC000
19C000
19C000
154000
148000
018000
010000
ENDCHAR
STARTCHAR Acircumflex
ENCODING 194
SWIDTH 494 0
DWIDTH 14 0
BBX 13 38 0 -6
BITMAP
0F80
1FC0
1FE0
1FE0
3DF0
38F0
7878
7038
E030
0000
0000
0000
FFF8
3FF0
1FE0
1FE0
1FE0
1FE0
1FE0
1FE0
1FC0
1FC0
1FC0
1DC0
1DC0
1DC0
1DC0
1FC0
1FC0
1FC0
1FC0
1DC0
19C0
19C0
1540
1480
0180
0100
ENDCHAR
STARTCHAR Atilde
ENCODING 195
SWIDTH 494 0
DWIDTH 14 0
BBX 13 35 0 -6
BITMAP
10E0
71F0
FFF8
7FF8
3FF8
1C20
0000
0000
0000
FFF8
3FF0
1FE0
1FE0
1FE0
1FE0
1FE0
1FE0
1FC0
1FC0
1FC0
1DC0
1DC0
1DC0
1DC0
1FC0
1FC0
1FC0
1FC0
1DC0
19C0
19C0
1540
1480
0180
0100
ENDCHAR
STARTCHAR Adieresis
ENCODING 196
SWIDTH 494 0
DWIDTH 14 0
BBX 14 35 0 -6
BITMAP
FCFC
FCFC
FCFC
FCFC
FCFC
FCFC
1800
0000
0000
FFF8
3FF0
1FE0
1FE0
1FE0
1FE0
1FE0
1FE0
1FC0
1FC0
1FC0
1DC0
1DC0
1DC0
1DC0
1FC0
1FC0
1FC0
1FC0
1DC0
19C0
19C0
1540
1480
0180
0100
ENDCHAR
STARTCHAR Aring
ENCODING 197
SWIDTH 494 0
DWIDTH 14 0
BBX 13 35 0 -6
BITMAP
0780
0FC0
1DE0
1860
0C60
0EC0
0F80
0300
0000
FFF8
3FF0
1FE0
1FE0
1FE0
1FE0
1FE0
1FE0
1FC0
1FC0
1FC0
1DC0
1DC0
1DC0
1DC0
1FC0
1FC0
1FC0
1FC0
1DC0
19C0
19C0
1540
1480
0180
0100
ENDCHAR
STARTCHAR AE
ENCODING 198
SWIDTH 733 0
DWIDTH 21 0
BBX 20 27 0 -6
BITMAP
003C00
FFFFF0
3FFFE0
1FFFE0
1FFFC0
1FFFC0
1FFF80
1FFF80
1FFF80
1FF380
1FF000
1FF000
1DFF00
1DFF00
1DFF00
1DFE00
1FF000
1FFE00
1FFF00
1FFF00
1DDF00
199900
199100
159200
149200
008000
010000
ENDCHAR
STARTCHAR Ccedilla
ENCODING 199
SWIDTH 504 0
DWIDTH 14 0
BBX 12 33 1 -12
BITMAP
0F80
1FC0
7FF0
7FF0
FFF0
FFF0
FFF0
FFF0
FFF0
FDF0
F9F0
F8F0
F950
7800
7800
7880
79F0
7DE0
3FE0
3FE0
3FC0
0B80
0B00
0B00
00C0
00C0
0180
0180
01F0
0030
0030
01F0
01F0
ENDCHAR
STARTCHAR Egrave
ENCODING 200
SWIDTH 570 0
DWIDTH 16 0
BBX 15 31 0 -2
BITMAP
3000
3800
3C00
FE00
7F80
0780
0080
0000
0780
7FFE
3FFC
3FFC
1FFC
1FFC
1FF8
1FF8
1FF8
1E70
1E00
1E00
1FE0
1FE0
1FE0
1FE0
0E00
0FC0
0FF0
0FE0
0BE0
0BA0
0220
ENDCHAR
STARTCHAR Eacute
ENCODING 201
SWIDTH 570 0
DWIDTH 16 0
BBX 17 31 1 -2
BITMAP
000400
000E00
003E00
007F80
00FE00
01F000
008000
000000
0F0000
FFFC00
7FF800
7FF800
3FF800
3FF800
3FF000
3FF000
3FF000
3CE000
3C0000
3C0000
3FC000
3FC000
3FC000
3FC000
1C0000
1F8000
1FE000
1FC000
17C000
174000
044000
ENDCHAR
STARTCHAR Ecircumflex
ENCODING 202
SWIDTH 570 0
DWIDTH 16 0
BBX 14 34 1 -2
BITMAP
0FC0
0FC0
1FE0
1FE0
3DF0
38F0
7878
7038
6010
0000
0000
0F00
FFFC
7FF8
7FF8
3FF8
3FF8
3FF0
3FF0
3FF0
3CE0
3C00
3C00
3FC0
3FC0
3FC0
3FC0
1C00
1F80
1FE0
1FC0
17C0
1740
0440
ENDCHAR
STARTCHAR Edieresis
ENCODING 203
SWIDTH 570 0
DWIDTH 16 0
BBX 14 31 1 -2
BITMAP
FCFC
FCFC
FCFC
FCFC
FCFC
FCFC
1C00
0000
0F00
FFFC
7FF8
7FF8
3FF8
3FF8
3FF0
3FF0
3FF0
3CE0
3C00
3C00
3FC0
3FC0
3FC0
3FC0
1C00
1F80
1FE0
1FC0
17C0
1740
0440
ENDCHAR
STARTCHAR Igrave
ENCODING 204
SWIDTH 401 0
DWIDTH 11 0
BBX 14 31 -3 -2
BITMAP
1000
3800
3E00
FF00
3F80
07C0
0080
0000
1FFC
0FF8
07F8
03F0
03F0
03F0
03F0
03F0
03F0
03F0
03E0
03E0
03E0
03E0
01E0
01E0
01E0
01E0
01E0
01E0
0160
0150
0040
ENDCHAR
STARTCHAR Iacute
ENCODING 205
SWIDTH 401 0
DWIDTH 11 0
BBX 15 31 0 -2
BITMAP
0018
0038
0078
00FE
03FC
03C0
0200
0000
FFE0
7FC0
3FC0
1F80
1F80
1F80
1F80
1F80
1F80
1F80
1F00
1F00
1F00
1F00
0F00
0F00
0F00
0F00
0F00
0F00
0B00
0A80
0200
ENDCHAR
STARTCHAR Icircumflex
ENCODING 206
SWIDTH 401 0
DWIDTH 11 0
BBX 13 34 -1 -2
BITMAP
1F80
1FC0
1FC0
3FE0
3DE0
79F0
70F0
E078
4030
0000
0000
7FF0
3FE0
1FE0
0FC0
0FC0
0FC0
0FC0
0FC0
0FC0
0FC0
0F80
0F80
0F80
0F80
0780
0780
0780
0780
0780
0780
0580
0540
0100
ENDCHAR
STARTCHAR Idieresis
ENCODING 207
SWIDTH 401 0
DWIDTH 11 0
BBX 14 31 -1 -2
BITMAP
F9F8
F8F8
F8F8
F8FC
F8F8
F8F8
3800
0000
7FF0
3FE0
1FE0
0FC0
0FC0
0FC0
0FC0
0FC0
0FC0
0FC0
0F80
0F80
0F80
0F80
0780
0780
0780
0780
0780
0780
0580
0540
0100
ENDCHAR
STARTCHAR Eth
ENCODING 208
SWIDTH 530 0
DWIDTH 15 0
BBX 14 25 1 -4
BITMAP
00E0
7FF0
7FF8
7FFC
3FFC
3FFC
1FFC
1FFC
1FFC
1F7C
1F3C
1E3C
FFB8
FFB8
1F38
0E38
0E30
0F70
0FF0
0FF0
0DE0
08C0
0880
0940
0100
ENDCHAR
STARTCHAR Ntilde
ENCODING 209
SWIDTH 610 0
DWIDTH 17 0
BBX 16 34 1 -5
BITMAP
10E0
38F0
7FF8
7FFC
3FF8
1E30
0000
0000
02C0
FE7F
FE7C
7E7C
7F78
7F78
3F78
3FF8
3FF8
3FF8
3FF8
3FF8
3FF0
1FF0
1DF0
1DF0
1DF0
1DF0
1CF0
1CF0
1CF0
1C50
1A50
12A0
1240
0200
ENDCHAR
STARTCHAR Ograve
ENCODING 210
SWIDTH 504 0
DWIDTH 14 0
BBX 14 31 -1 -2
BITMAP
3000
3800
7C00
FE00
7F80
0F80
0080
0000
01C0
0FF0
1FF8
1FFC
3FFC
3FFC
3FFC
3FFC
3FFC
3F7C
3E7C
1E7C
1E7C
1E7C
1E7C
1E78
1E7C
0E78
1FF8
0FF0
0FF0
0250
0250
ENDCHAR
STARTCHAR Oacute
ENCODING 211
SWIDTH 504 0
DWIDTH 14 0
BBX 15 31 1 -2
BITMAP
0008
003C
007C
00FE
01FC
03E0
0200
0000
0700
3FC0
7FE0
7FF0
FFF0
FFF0
FFF0
FFF0
FFF0
FDF0
F9F0
79F0
79F0
79F0
79F0
79E0
79F0
39E0
7FE0
3FC0
3FC0
0940
0940
ENDCHAR
STARTCHAR Ocircumflex
ENCODING 212
SWIDTH 504 0
DWIDTH 14 0
BBX 13 34 0 -2
BITMAP
0F80
1FC0
1FC0
3FE0
3DE0
38F0
7070
6078
E030
0000
0000
0380
1FE0
3FF0
3FF8
7FF8
7FF8
7FF8
7FF8
7FF8
7EF8
7CF8
3CF8
3CF8
3CF8
3CF8
3CF0
3CF8
1CF0
3FF0
1FE0
1FE0
04A0
04A0
ENDCHAR
STARTCHAR Otilde
ENCODING 213
SWIDTH 504 0
DWIDTH 14 0
BBX 13 31 0 -2
BITMAP
20C0
71E0
FFF0
7FF8
7FF0
3C20
0000
0000
0380
1FE0
3FF0
3FF8
7FF8
7FF8
7FF8
7FF8
7FF8
7EF8
7CF8
3CF8
3CF8
3CF8
3CF8
3CF0
3CF8
1CF0
3FF0
1FE0
1FE0
04A0
04A0
ENDCHAR
STARTCHAR Odieresis
ENCODING 214
SWIDTH 504 0
DWIDTH 14 0
BBX 14 31 0 -2
BITMAP
FCFC
FCFC
FCFC
FCFC
FCFC
FCFC
3800
0000
0380
1FE0
3FF0
3FF8
7FF8
7FF8
7FF8
7FF8
7FF8
7EF8
7CF8
3CF8
3CF8
3CF8
3CF8
3CF0
3CF8
1CF0
3FF0
1FE0
1FE0
04A0
04A0
ENDCHAR
STARTCHAR multiply
ENCODING 215
SWIDTH 359 0
DWIDTH 10 0
BBX 10 11 0 5
BITMAP
1100
3380
7F80
FFC0
3F00
1F00
3F80
FFC0
7FC0
3380
1100
ENDCHAR
STARTCHAR Oslash
ENCODING 216
SWIDTH 658 0
DWIDTH 18 0
BBX 20 23 -1 -2
BITMAP
00E000
07F800
0FFC10
1FFF20
1FFE40
1FFE80
1FFF00
1FFE00
1FFF00
1FBF00
1F3F00
1F3F00
0F7F00
0F9E00
0F1E00
0F1E00
0F3E00
0F3C00
1FFC00
37FC00
67F800
413800
812800
ENDCHAR
STARTCHAR Ugrave
ENCODING 217
SWIDTH 637 0
DWIDTH 18 0
BBX 18 31 0 -2
BITMAP
180000
1C0000
1E0000
7F0000
3FC000
03C000
004000
000000
0F2000
FF3FC0
3F3F00
3F3F00
3F3F00
3F3E00
1F3E00
1F3E00
1F3E00
1F3C00
1F3C00
1F3C00
1F3C00
1F3C00
1F3C00
1F3C00
0F3C00
0FF800
0FF800
0FF800
076000
026000
002000
ENDCHAR
STARTCHAR Uacute
ENCODING 218
SWIDTH 637 0
DWIDTH 18 0
BBX 19 31 0 -2
BITMAP
000100
000380
000F80
001FE0
003F80
007C00
002000
000000
0F2000
FF3FC0
3F3F00
3F3F00
3F3F00
3F3E00
1F3E00
1F3E00
1F3E00
1F3C00
1F3C00
1F3C00
1F3C00
1F3C00
1F3C00
1F3C00
0F3C00
0FF800
0FF800
0FF800
076000
026000
002000
ENDCHAR
STARTCHAR Ucircumflex
ENCODING 219
SWIDTH 637 0
DWIDTH 18 0
BBX 18 34 0 -2
BITMAP
03F000
03F000
07F800
07F800
0F7C00
0E3C00
1E1E00
1C0E00
180400
000000
000000
0F2000
FF3FC0
3F3F00
3F3F00
3F3F00
3F3E00
1F3E00
1F3E00
1F3E00
1F3C00
1F3C00
1F3C00
1F3C00
1F3C00
1F3C00
1F3C00
0F3C00
0FF800
0FF800
0FF800
076000
026000
002000
ENDCHAR
STARTCHAR Udieresis
ENCODING 220
SWIDTH 637 0
DWIDTH 18 0
BBX 18 31 0 -2
BITMAP
3F3F00
3F3F00
3F3F00
3F3F00
3F3F00
3F3F00
070000
000000
0F2000
FF3FC0
3F3F00
3F3F00
3F3F00
3F3E00
1F3E00
1F3E00
1F3E00
1F3C00
1F3C00
1F3C00
1F3C00
1F3C00
1F3C00
1F3C00
0F3C00
0FF800
0FF800
0FF800
076000
026000
002000
ENDCHAR
STARTCHAR Yacute
ENCODING 221
SWIDTH 688 0
DWIDTH 19 0
BBX 20 30 0 -1
BITMAP
000080
0003C0
0007C0
000FE0
001FD0
003E00
001000
000000
170800
FF0F80
1F8FF0
0FDF80
07DF80
03FF00
01FE00
01FC00
00FC00
00FC00
00FC00
007C00
007C00
007C00
007C00
003800
003800
003800
003800
003800
003800
003800
ENDCHAR
STARTCHAR Thorn
ENCODING 222
SWIDTH 521 0
DWIDTH 15 0
BBX 14 30 0 -4
BITMAP
0500
FF00
7F00
7F00
7E00
7F60
7FF8
7FF8
7FFC
7FFC
3FFC
3FFC
3FFC
3FFC
3E38
3E38
3E38
3E38
1FF8
1FF0
1FF0
1FA0
1E00
1F00
1F00
1F00
0B00
0B00
0B00
0A00
ENDCHAR
STARTCHAR germandbls
ENCODING 223
SWIDTH 546 0
DWIDTH 15 0
BBX 14 22 1 -2
BITMAP
3FF0
7FF8
FFF8
FFFC
FFF8
FFF8
FFFC
FFF8
FCF8
FCF0
FCF0
7CF0
7DE0
7DC0
7DE0
7DF0
7CF0
7CE0
3CE0
3FE0
3FE0
28C0
ENDCHAR
STARTCHAR agrave
ENCODING 224
SWIDTH 479 0
DWIDTH 13 0
BBX 15 32 -1 -3
BITMAP
3000
3800
3C00
FE00
7F80
0780
0080
0000
0FFE
7FF8
1FF8
0FF0
0FF0
0FF0
0FF0
0FF0
0FF0
0FF0
0FF0
0FF0
0FF0
0E70
0E70
0E70
0E70
1FF0
0FF0
0FF0
0E70
0E70
0EB0
0400
ENDCHAR
STARTCHAR aacute
ENCODING 225
SWIDTH 479 0
DWIDTH 13 0
BBX 17 32 0 -3
BITMAP
000400
000E00
001E00
007F80
00FE00
00F000
008000
000000
1FFC00
FFF000
3FF000
1FE000
1FE000
1FE000
1FE000
1FE000
1FE000
1FE000
1FE000
1FE000
1FE000
1CE000
1CE000
1CE000
1CE000
3FE000
1FE000
1FE000
1CE000
1CE000
1D6000
080000
ENDCHAR
STARTCHAR acircumflex
ENCODING 226
SWIDTH 479 0
DWIDTH 13 0
BBX 14 35 0 -3
BITMAP
0FC0
0FC0
1FE0
1FE0
3FF0
3CF0
3878
7038
6010
0000
0000
1FFC
FFF0
3FF0
1FE0
1FE0
1FE0
1FE0
1FE0
1FE0
1FE0
1FE0
1FE0
1FE0
1CE0
1CE0
1CE0
1CE0
3FE0
1FE0
1FE0
1CE0
1CE0
1D60
0800
ENDCHAR
STARTCHAR atilde
ENCODING 227
SWIDTH 479 0
DWIDTH 13 0
BBX 14 32 0 -3
BITMAP
2160
71F0
FFF8
7FF8
3FF0
1C20
0000
0000
1FFC
FFF0
3FF0
1FE0
1FE0
1FE0
1FE0
1FE0
1FE0
1FE0
1FE0
1FE0
1FE0
1CE0
1CE0
1CE0
1CE0
3FE0
1FE0
1FE0
1CE0
1CE0
1D60
0800
ENDCHAR
STARTCHAR adieresis
ENCODING 228
SWIDTH 479 0
DWIDTH 13 0
BBX 14 32 0 -3
BITMAP
7CFC
7CFC
7CFC
FCFC
FCFC
7CFC
1C00
0000
1FFC
FFF0
3FF0
1FE0
1FE0
1FE0
1FE0
1FE0
1FE0
1FE0
1FE0
1FE0
1FE0
1CE0
1CE0
1CE0
1CE0
3FE0
1FE0
1FE0
1CE0
1CE0
1D60
0800
ENDCHAR
STARTCHAR aring
ENCODING 229
SWIDTH 479 0
DWIDTH 13 0
BBX 14 34 0 -3
BITMAP
0780
0FC0
1CE0
0C60
0C60
0EC0
0FC0
0380
0000
0000
1FFC
FFF0
3FF0
1FE0
1FE0
1FE0
1FE0
1FE0
1FE0
1FE0
1FE0
1FE0
1FE0
1CE0
1CE0
1CE0
1CE0
3FE0
1FE0
1FE0
1CE0
1CE0
1D60
0800
ENDCHAR
STARTCHAR ae
ENCODING 230
SWIDTH 755 0
DWIDTH 21 0
BBX 20 24 0 -3
BITMAP
1FFE00
FFFFF0
3FFFF0
1FFFE0
1FFFE0
1FFFC0
1FFFC0
1FFFC0
1FFFC0
1FFFC0
1FF040
1FF000
1FFF00
1EFF00
1EFF00
1CFF00
1CF100
1FF000
1FF780
1FFF00
1CFF00
1CEF00
1CE100
080000
ENDCHAR
STARTCHAR ccedilla
ENCODING 231
SWIDTH 534 0
DWIDTH 15 0
BBX 14 32 1 -11
BITMAP
0780
1FE0
7FF0
7FF8
FFFC
FFF8
FFF8
FFF8
FFF8
FFF8
FCF8
7CF8
7CF8
7C00
7C00
7C00
3CF0
3CF0
3DE0
3FE0
1FC0
1780
0480
01C0
0180
0180
0380
03E0
0060
0060
01E0
03E0
ENDCHAR
STARTCHAR egrave
ENCODING 232
SWIDTH 632 0
DWIDTH 18 0
BBX 17 31 0 -2
BITMAP
100000
3C0000
3E0000
7F0000
3F8000
07C000
004000
000000
00E000
7FFF80
FFFF00
3FFF00
3FFE00
1FFE00
1FFE00
1FFC00
1FFC00
1FFC00
1F8400
0F8000
0FF800
0FF800
0FF800
0FF800
0F9000
0F8000
07F800
07F800
07F800
04F800
040800
ENDCHAR
STARTCHAR eacute
ENCODING 233
SWIDTH 632 0
DWIDTH 18 0
BBX 18 31 0 -2
BITMAP
000300
000700
000F80
001FC0
007F80
007C00
004000
000000
00E000
7FFF80
FFFF00
3FFF00
3FFE00
1FFE00
1FFE00
1FFC00
1FFC00
1FFC00
1F8400
0F8000
0FF800
0FF800
0FF800
0FF800
0F9000
0F8000
07F800
07F800
07F800
04F800
040800
ENDCHAR
STARTCHAR ecircumflex
ENCODING 234
SWIDTH 632 0
DWIDTH 18 0
BBX 17 34 0 -2
BITMAP
03E000
07F000
07F000
0FF800
0F7800
1E3C00
1C3C00
181E00
380C00
000000
000000
00E000
7FFF80
FFFF00
3FFF00
3FFE00
1FFE00
1FFE00
1FFC00
1FFC00
1FFC00
1F8400
0F8000
0FF800
0FF800
0FF800
0FF800
0F9000
0F8000
07F800
07F800
07F800
04F800
040800
ENDCHAR
STARTCHAR edieresis
ENCODING 235
SWIDTH 632 0
DWIDTH 18 0
BBX 17 31 0 -2
BITMAP
3E3F00
3E3F00
3E3F00
3F3F00
3E3F00
3E3F00
0E0000
000000
00E000
7FFF80
FFFF00
3FFF00
3FFE00
1FFE00
1FFE00
1FFC00
1FFC00
1FFC00
1F8400
0F8000
0FF800
0FF800
0FF800
0FF800
0F9000
0F8000
07F800
07F800
07F800
04F800
040800
ENDCHAR
STARTCHAR igrave
ENCODING 236
SWIDTH 411 0
DWIDTH 12 0
BBX 14 30 -3 -1
BITMAP
1000
3C00
3E00
7F00
BF80
07C0
0040
0000
1360
0FFC
07F8
03F0
03F0
01F0
03F0
03F0
03F0
03E0
03E0
03E0
01E0
01E0
01E0
01E0
01E0
01E0
01E0
01E0
01E0
0060
ENDCHAR
STARTCHAR iacute
ENCODING 237
SWIDTH 411 0
DWIDTH 12 0
BBX 15 30 0 -1
BITMAP
0018
0038
007C
00FE
03FC
03E0
0200
0000
9B00
7FE0
3FC0
1F80
1F80
0F80
1F80
1F80
1F80
1F00
1F00
1F00
0F00
0F00
0F00
0F00
0F00
0F00
0F00
0F00
0F00
0300
ENDCHAR
STARTCHAR icircumflex
ENCODING 238
SWIDTH 411 0
DWIDTH 12 0
BBX 13 33 0 -1
BITMAP
1F80
1F80
3FC0
3FE0
3DE0
79F0
70F0
E078
C030
0000
0000
9B00
7FE0
3FC0
1F80
1F80
0F80
1F80
1F80
1F80
1F00
1F00
1F00
0F00
0F00
0F00
0F00
0F00
0F00
0F00
0F00
0F00
0300
ENDCHAR
STARTCHAR idieresis
ENCODING 239
SWIDTH 411 0
DWIDTH 12 0
BBX 14 30 -1 -1
BITMAP
F8FC
F8FC
F8F8
F8FC
F8FC
F8FC
3800
0000
4D80
3FF0
1FE0
0FC0
0FC0
07C0
0FC0
0FC0
0FC0
0F80
0F80
0F80
0780
0780
0780
0780
0780
0780
0780
0780
0780
0180
ENDCHAR
STARTCHAR eth
ENCODING 240
SWIDTH 530 0
DWIDTH 15 0
BBX 14 25 1 -4
BITMAP
00E0
7FF0
7FF8
7FFC
3FFC
3FFC
1FFC
1FFC
1FFC
1F7C
1F3C
1E3C
FFB8
FFB8
1F38
0E38
0E30
0F70
0FF0
0FF0
0DE0
08C0
0880
0940
0100
ENDCHAR
STARTCHAR ntilde
ENCODING 241
SWIDTH 664 0
DWIDTH 19 0
BBX 19 32 0 -3
BITMAP
043800
1E7C00
1FFF00
1FFE00
0FFE00
078800
000000
000000
9F9820
7F9FC0
3F9F80
3F9F80
3FDF00
3FDF00
3FDF00
3FDF00
1FFE00
1FFE00
1FFE00
1FFE00
1FFE00
1FFE00
1EFE00
0EFC00
0EFC00
0E7C00
0E7C00
0E7C00
0E7800
0E7800
0D5800
001000
ENDCHAR
STARTCHAR ograve
ENCODING 242
SWIDTH 545 0
DWIDTH 15 0
BBX 16 31 -1 -2
BITMAP
1000
3800
3E00
FF00
3F80
07C0
0080
0000
0160
0FF8
1FFC
1FFE
3FFF
3FFE
3FFE
3FFF
3FFF
3F7F
3E3F
1E3E
1E3E
1E3E
1E3E
1E3C
1F7C
0F7C
0FFC
0FF8
07F8
0170
0050
ENDCHAR
STARTCHAR oacute
ENCODING 243
SWIDTH 545 0
DWIDTH 15 0
BBX 16 31 1 -2
BITMAP
000C
001C
003C
007F
01FE
01E0
0100
0000
0580
3FE0
7FF0
7FF8
FFFC
FFF8
FFF8
FFFC
FFFC
FDFC
F8FC
78F8
78F8
78F8
78F8
78F0
7DF0
3DF0
3FF0
3FE0
1FE0
05C0
0140
ENDCHAR
STARTCHAR ocircumflex
ENCODING 244
SWIDTH 545 0
DWIDTH 15 0
BBX 14 34 1 -2
BITMAP
1F80
1FC0
1FC0
3FE0
3DE0
79F0
70F0
E078
4030
0000
0000
0580
3FE0
7FF0
7FF8
FFFC
FFF8
FFF8
FFFC
FFFC
FDFC
F8FC
78F8
78F8
78F8
78F8
78F0
7DF0
3DF0
3FF0
3FE0
1FE0
05C0
0140
ENDCHAR
STARTCHAR otilde
ENCODING 245
SWIDTH 545 0
DWIDTH 15 0
BBX 15 31 0 -2
BITMAP
10E0
71F0
FFF8
7FF8
3FF8
1E20
0000
0000
02C0
1FF0
3FF8
3FFC
7FFE
7FFC
7FFC
7FFE
7FFE
7EFE
7C7E
3C7C
3C7C
3C7C
3C7C
3C78
3EF8
1EF8
1FF8
1FF0
0FF0
02E0
00A0
ENDCHAR
STARTCHAR odieresis
ENCODING 246
SWIDTH 545 0
DWIDTH 15 0
BBX 14 31 1 -2
BITMAP
F9F8
F8F8
F8F8
F8FC
F8F8
F8F8
3800
0000
0580
3FE0
7FF0
7FF8
FFFC
FFF8
FFF8
FFFC
FFFC
FDFC
F8FC
78F8
78F8
78F8
78F8
78F0
7DF0
3DF0
3FF0
3FE0
1FE0
05C0
0140
ENDCHAR
STARTCHAR oslash
ENCODING 248
SWIDTH 676 0
DWIDTH 19 0
BBX 18 23 0 -2
BITMAP
03C000
0FF040
1FF880
3FFD00
7FFE00
7FFE00
7FFC00
7FFE00
3FFC00
3EFE00
3E7C00
3CFC00
3D7C00
3E7C00
3C7C00
1C7800
1EF800
1EF800
3FF800
5FF000
8FF000
82E000
00A000
ENDCHAR
STARTCHAR ugrave
ENCODING 249
SWIDTH 708 0
DWIDTH 20 0
BBX 20 29 0 0
BITMAP
0C0000
0E0000
0F0000
3F8000
1FE000
01E000
002000
000000
078000
FF8F80
3F8FF0
3F9FE0
3F8FC0
1F8FC0
1F8F80
1F8F80
1F8F80
0F8F00
0F8F00
0F9F00
0F9F00
0F9F00
0F9F00
0F9F00
079E00
07FF00
07FE00
03FE00
01AC00
ENDCHAR
STARTCHAR uacute
ENCODING 250
SWIDTH 708 0
DWIDTH 20 0
BBX 20 29 0 0
BITMAP
000080
0001C0
0007C0
000FF0
001FC0
003E00
001000
000000
078000
FF8F80
3F8FF0
3F9FE0
3F8FC0
1F8FC0
1F8F80
1F8F80
1F8F80
0F8F00
0F8F00
0F9F00
0F9F00
0F9F00
0F9F00
0F9F00
079E00
07FF00
07FE00
03FE00
01AC00
ENDCHAR
STARTCHAR ucircumflex
ENCODING 251
SWIDTH 708 0
DWIDTH 20 0
BBX 20 32 0 0
BITMAP
01F800
01F800
03FC00
03FC00
07BE00
071E00
0F0F00
0E0700
0C0200
000000
000000
078000
FF8F80
3F8FF0
3F9FE0
3F8FC0
1F8FC0
1F8F80
1F8F80
1F8F80
0F8F00
0F8F00
0F9F00
0F9F00
0F9F00
0F9F00
0F9F00
079E00
07FF00
07FE00
03FE00
01AC00
ENDCHAR
STARTCHAR udieresis
ENCODING 252
SWIDTH 708 0
DWIDTH 20 0
BBX 20 29 0 0
BITMAP
1F9F80
1F9F80
1F9F80
1F9F80
1F9F80
1F9F80
038000
000000
078000
FF8F80
3F8FF0
3F9FE0
3F8FC0
1F8FC0
1F8F80
1F8F80
1F8F80
0F8F00
0F8F00
0F9F00
0F9F00
0F9F00
0F9F00
0F9F00
079E00
07FF00
07FE00
03FE00
01AC00
ENDCHAR
STARTCHAR yacute
ENCODING 253
SWIDTH 604 0
DWIDTH 17 0
BBX 18 31 0 -2
BITMAP
000300
000700
000F00
001FC0
007F80
007800
004000
000000
1C2000
FE3E00
3F3F80
0F7E00
077C00
07F800
03F000
03F000
03F000
03F000
01F000
01F000
01E000
01E000
01E000
01E000
01E000
01E000
01E000
01E000
01E000
01E000
010000
ENDCHAR
STARTCHAR thorn
ENCODING 254
SWIDTH 498 0
DWIDTH 14 0
BBX 13 30 0 -4
BITMAP
0500
FF00
7E00
7E00
7E00
7FC0
7FF0
7FF8
7FF8
7FF8
3FF8
3FF8
3FF8
3FF8
3E78
3E78
3E78
3E70
1FF0
1FF0
1FF0
1FE0
1E00
1E00
1F00
1F00
0B00
0B00
0B00
0A00
ENDCHAR
STARTCHAR ydieresis
ENCODING 255
SWIDTH 604 0
DWIDTH 17 0
BBX 17 31 0 -2
BITMAP
1F3F00
1F3F00
1F3F00
1F3F00
1F3F00
1F3F00
070000
000000
1C2000
FE3E00
3F3F80
0F7E00
077C00
07F800
03F000
03F000
03F000
03F000
01F000
01F000
01E000
01E000
01E000
01E000
01E000
01E000
01E000
01E000
01E000
01E000
010000
ENDCHAR
STARTCHAR Amacron
ENCODING 256
SWIDTH 494 0
DWIDTH 14 0
BBX 13 32 0 -6
BITMAP
3C20
3FF0
3FE0
2FE0
0000
0000
FFF8
3FF0
1FE0
1FE0
1FE0
1FE0
1FE0
1FE0
1FC0
1FC0
1FC0
1DC0
1DC0
1DC0
1DC0
1FC0
1FC0
1FC0
1FC0
1DC0
19C0
19C0
1540
1480
0180
0100
ENDCHAR
STARTCHAR amacron
ENCODING 257
SWIDTH 479 0
DWIDTH 13 0
BBX 14 30 0 -3
BITMAP
3C10
3FF0
3FF0
1FF0
0000
0000
1FFC
FFF0
3FF0
1FE0
1FE0
1FE0
1FE0
1FE0
1FE0
1FE0
1FE0
1FE0
1FE0
1CE0
1CE0
1CE0
1CE0
3FE0
1FE0
1FE0
1CE0
1CE0
1D60
0800
ENDCHAR
STARTCHAR Abreve
ENCODING 258
SWIDTH 494 0
DWIDTH 14 0
BBX 14 37 0 -6
BITMAP
1C00
1C3C
1E38
0FF8
0FF0
0BF0
0270
0050
0000
0000
0000
FFF8
3FF0
1FE0
1FE0
1FE0
1FE0
1FE0
1FE0
1FC0
1FC0
1FC0
1DC0
1DC0
1DC0
1DC0
1FC0
1FC0
1FC0
1FC0
1DC0
19C0
19C0
1540
1480
0180
0100
ENDCHAR
STARTCHAR abreve
ENCODING 259
SWIDTH 479 0
DWIDTH 13 0
BBX 14 34 0 -3
BITMAP
1C00
1C3C
1E38
0FF8
0FF0
0BF0
0270
0050
0000
0000
1FFC
FFF0
3FF0
1FE0
1FE0
1FE0
1FE0
1FE0
1FE0
1FE0
1FE0
1FE0
1FE0
1CE0
1CE0
1CE0
1CE0
3FE0
1FE0
1FE0
1CE0
1CE0
1D60
0800
ENDCHAR
STARTCHAR Aogonek
ENCODING 260
SWIDTH 494 0
DWIDTH 14 0
BBX 13 32 0 -12
BITMAP
FFF8
3FF0
1FE0
1FE0
1FE0
1FE0
1FE0
1FE0
1FC0
1FC0
1FC0
1DC0
1DC0
1DC0
1DC0
1FC0
1FC0
1FC0
1FC0
1DC0
19C0
1980
1580
1780
0380
0380
0380
03C0
03F8
01F8
01F8
0078
ENDCHAR
STARTCHAR aogonek
ENCODING 261
SWIDTH 479 0
DWIDTH 13 0
BBX 15 31 0 -10
BITMAP
1FFC
FFF0
3FF0
1FE0
1FE0
1FE0
1FE0
1FE0
1FE0
1FE0
1FE0
1FE0
1FE0
1CE0
1CE0
1CE0
1CE0
3FE0
1FE0
1FE0
1CE0
1CE0
1CE0
08E0
00C0
00C0
00E0
00FA
00FE
007C
003C
ENDCHAR
STARTCHAR Cacute
ENCODING 262
SWIDTH 504 0
DWIDTH 14 0
BBX 14 32 1 -3
BITMAP
0030
0070
00F8
01FC
07F8
07C0
0400
0000
0F80
1FC0
7FF0
7FF0
FFF0
FFF0
FFF0
FFF0
FFF0
FDF0
F9F0
F8F0
F950
7800
7800
7880
79F0
7DE0
3FE0
3FE0
3FC0
0B80
0B00
0B00
ENDCHAR
STARTCHAR cacute
ENCODING 263
SWIDTH 534 0
DWIDTH 15 0
BBX 15 31 1 -2
BITMAP
0010
0038
0078
01FE
03F8
03C0
0200
0000
0780
1FE0
7FF0
7FF8
FFFC
FFF8
FFF8
FFF8
FFF8
FFF8
FCF8
7CF8
7CF8
7C00
7C00
7C00
3CF0
3CF0
3DE0
3FE0
1FC0
1780
0480
ENDCHAR
STARTCHAR Ccircumflex
ENCODING 264
SWIDTH 504 0
DWIDTH 14 0
BBX 13 35 1 -3
BITMAP
0F80
1FC0
1FC0
3FE0
3DE0
78F0
70F0
6078
E030
0000
0000
0F80
1FC0
7FF0
7FF0
FFF0
FFF0
FFF0
FFF0
FFF0
FDF0
F9F0
F8F0
F950
7800
7800
7880
79F0
7DE0
3FE0
3FE0
3FC0
0B80
0B00
0B00
ENDCHAR
STARTCHAR ccircumflex
ENCODING 265
SWIDTH 534 0
DWIDTH 15 0
BBX 14 34 1 -2
BITMAP
0FC0
0FE0
0FE0
1FF0
1EF0
3CF8
3878
703C
2018
0000
0000
0780
1FE0
7FF0
7FF8
FFFC
FFF8
FFF8
FFF8
FFF8
FFF8
FCF8
7CF8
7CF8
7C00
7C00
7C00
3CF0
3CF0
3DE0
3FE0
1FC0
1780
0480
ENDCHAR
STARTCHAR Cdotaccent
ENCODING 266
SWIDTH 504 0
DWIDTH 14 0
BBX 12 34 1 -3
BITMAP
3FC0
1FC0
1FC0
1FC0
1FC0
1FC0
1FC0
1FC0
1800
0000
0F80
1FC0
7FF0
7FF0
FFF0
FFF0
FFF0
FFF0
FFF0
FDF0
F9F0
F8F0
F950
7800
7800
7880
79F0
7DE0
3FE0
3FE0
3FC0
0B80
0B00
0B00
ENDCHAR
STARTCHAR cdotaccent
ENCODING 267
SWIDTH 534 0
DWIDTH 15 0
BBX 14 33 1 -2
BITMAP
0FE0
1FE0
1FE0
0FC0
0FE0
0FE0
0FE0
0FE0
0800
0000
0780
1FE0
7FF0
7FF8
FFFC
FFF8
FFF8
FFF8
FFF8
FFF8
FCF8
7CF8
7CF8
7C00
7C00
7C00
3CF0
3CF0
3DE0
3FE0
1FC0
1780
0480
ENDCHAR
STARTCHAR Ccaron
ENCODING 268
SWIDTH 504 0
DWIDTH 14 0
BBX 13 36 1 -3
BITMAP
2020
E070
F0F8
78F0
79E0
3FE0
3FC0
3FC0
1F80
1F80
0000
0000
0F80
1FC0
7FF0
7FF0
FFF0
FFF0
FFF0
FFF0
FFF0
FDF0
F9F0
F8F0
F950
7800
7800
7880
79F0
7DE0
3FE0
3FE0
3FC0
0B80
0B00
0B00
ENDCHAR
STARTCHAR ccaron
ENCODING 269
SWIDTH 534 0
DWIDTH 15 0
BBX 14 35 1 -2
BITMAP
1010
7038
787C
3C78
3CF0
1FF0
1FE0
1FE0
0FC0
0FC0
0000
0000
0780
1FE0
7FF0
7FF8
FFFC
FFF8
FFF8
FFF8
FFF8
FFF8
FCF8
7CF8
7CF8
7C00
7C00
7C00
3CF0
3CF0
3DE0
3FE0
1FC0
1780
0480
ENDCHAR
STARTCHAR Dcaron
ENCODING 270
SWIDTH 522 0
DWIDTH 15 0
BBX 14 37 1 -4
BITMAP
1010
7838
383C
3C78
3CF8
1EF0
1FF0
0FE0
0FE0
07C0
0000
0000
0000
FFE0
FFF0
7FF8
7FF8
7FF8
7FF8
3FF8
3FF8
3EF8
3E78
3C70
3C70
3C70
3E70
3C70
1C60
1EE0
1FE0
1FE0
1BC0
1380
1300
1280
0200
ENDCHAR
STARTCHAR dcaron
ENCODING 271
SWIDTH 522 0
DWIDTH 15 0
BBX 14 37 1 -4
BITMAP
1010
7838
383C
3C78
3CF8
1EF0
1FF0
0FE0
0FE0
07C0
0000
0000
0000
FFE0
FFF0
7FF8
7FF8
7FF8
7FF8
3FF8
3FF8
3EF8
3E78
3C70
3C70
3C70
3E70
3C70
1C60
1EE0
1FE0
1FE0
1BC0
1380
1300
1280
0200
ENDCHAR
STARTCHAR Eth.dup2
ENCODING 272
SWIDTH 530 0
DWIDTH 15 0
BBX 14 25 1 -4
BITMAP
00E0
7FF0
7FF8
7FFC
3FFC
3FFC
1FFC
1FFC
1FFC
1F7C
1F3C
1E3C
FFB8
FFB8
1F38
0E38
0E30
0F70
0FF0
0FF0
0DE0
08C0
0880
0940
0100
ENDCHAR
STARTCHAR Emacron
ENCODING 274
SWIDTH 570 0
DWIDTH 16 0
BBX 14 28 1 -2
BITMAP
3C10
3FF0
3FF0
2FF0
0000
0F00
FFFC
7FF8
7FF8
3FF8
3FF8
3FF0
3FF0
3FF0
3CE0
3C00
3C00
3FC0
3FC0
3FC0
3FC0
1C00
1F80
1FE0
1FC0
17C0
1740
0440
ENDCHAR
STARTCHAR emacron
ENCODING 275
SWIDTH 632 0
DWIDTH 18 0
BBX 17 28 0 -2
BITMAP
0E0800
0FF800
0FF800
0F7800
000000
00E000
7FFF80
FFFF00
3FFF00
3FFE00
1FFE00
1FFE00
1FFC00
1FFC00
1FFC00
1F8400
0F8000
0FF800
0FF800
0FF800
0FF800
0F9000
0F8000
07F800
07F800
07F800
04F800
040800
ENDCHAR
STARTCHAR Ebreve
ENCODING 276
SWIDTH 570 0
DWIDTH 16 0
BBX 14 33 1 -2
BITMAP
1C00
1C3C
1E38
0FF8
0FF8
0BF0
0270
0050
0000
0000
0F00
FFFC
7FF8
7FF8
3FF8
3FF8
3FF0
3FF0
3FF0
3CE0
3C00
3C00
3FC0
3FC0
3FC0
3FC0
1C00
1F80
1FE0
1FC0
17C0
1740
0440
ENDCHAR
STARTCHAR ebreve
ENCODING 277
SWIDTH 632 0
DWIDTH 18 0
BBX 17 33 0 -2
BITMAP
078000
078F00
038F00
03FF00
03FE00
01FC00
005C00
001400
000000
000000
00E000
7FFF80
FFFF00
3FFF00
3FFE00
1FFE00
1FFE00
1FFC00
1FFC00
1FFC00
1F8400
0F8000
0FF800
0FF800
0FF800
0FF800
0F9000
0F8000
07F800
07F800
07F800
04F800
040800
ENDCHAR
STARTCHAR Edotaccent
ENCODING 278
SWIDTH 570 0
DWIDTH 16 0
BBX 14 33 1 -2
BITMAP
2FC0
1FC0
1FC0
1FC0
0FE0
0FE0
0FC0
0FC0
0800
0000
0F00
FFFC
7FF8
7FF8
3FF8
3FF8
3FF0
3FF0
3FF0
3CE0
3C00
3C00
3FC0
3FC0
3FC0
3FC0
1C00
1F80
1FE0
1FC0
17C0
1740
0440
ENDCHAR
STARTCHAR edotaccent
ENCODING 279
SWIDTH 632 0
DWIDTH 18 0
BBX 17 33 0 -2
BITMAP
0FF000
07F000
07F000
07F000
07F000
07F000
07F000
07F000
060000
000000
00E000
7FFF80
FFFF00
3FFF00
3FFE00
1FFE00
1FFE00
1FFC00
1FFC00
1FFC00
1F8400
0F8000
0FF800
0FF800
0FF800
0FF800
0F9000
0F8000
07F800
07F800
07F800
04F800
040800
ENDCHAR
STARTCHAR Eogonek
ENCODING 280
SWIDTH 513 0
DWIDTH 14 0
BBX 14 30 1 -9
BITMAP
0F00
FFFC
7FF8
7FF8
3FF8
3FF8
3FF0
3FF0
3FF0
3CE0
3C00
3C00
3FC0
3FC0
3FC0
3FC0
1C00
1F80
1FE0
1FC0
1FC0
13C0
0380
0380
0380
0380
03E4
03F8
01F8
00F8
ENDCHAR
STARTCHAR eogonek
ENCODING 281
SWIDTH 632 0
DWIDTH 18 0
BBX 17 30 0 -9
BITMAP
00E000
7FFF80
FFFF00
3FFF00
3FFE00
1FFE00
1FFE00
1FFC00
1FFC00
1FFC00
1F8400
0F8000
0FF800
0FF800
0FF800
0FF800
0F9000
0F8000
07F800
07F800
07F800
04F000
047000
006000
00E000
00F000
007800
007F00
007F00
001F00
ENDCHAR
STARTCHAR Ecaron
ENCODING 282
SWIDTH 570 0
DWIDTH 16 0
BBX 14 35 1 -2
BITMAP
1010
3838
783C
3C78
3CF8
1EF0
1FF0
0FE0
0FE0
07C0
0000
0000
0F00
FFFC
7FF8
7FF8
3FF8
3FF8
3FF0
3FF0
3FF0
3CE0
3C00
3C00
3FC0
3FC0
3FC0
3FC0
1C00
1F80
1FE0
1FC0
17C0
1740
0440
ENDCHAR
STARTCHAR ecaron
ENCODING 283
SWIDTH 632 0
DWIDTH 18 0
BBX 17 35 0 -2
BITMAP
040400
0E0600
0F0F00
0F1F00
079E00
07BE00
03FC00
03FC00
01F800
01F800
000000
000000
00E000
7FFF80
FFFF00
3FFF00
3FFE00
1FFE00
1FFE00
1FFC00
1FFC00
1FFC00
1F8400
0F8000
0FF800
0FF800
0FF800
0FF800
0F9000
0F8000
07F800
07F800
07F800
04F800
040800
ENDCHAR
STARTCHAR Gcircumflex
ENCODING 284
SWIDTH 499 0
DWIDTH 14 0
BBX 13 35 0 -3
BITMAP
0FC0
1FC0
1FE0
1FE0
3DF0
38F0
7878
7038
E030
0000
0000
0700
1FC0
3FF0
7FF8
7FF8
7FF8
7FF8
7FF8
7FF8
7DF8
7CF8
3CF8
3C78
3D00
3DF8
3DF8
3DF8
3E78
1EF8
1FF0
1FF0
0FE0
0540
0400
ENDCHAR
STARTCHAR gcircumflex
ENCODING 285
SWIDTH 546 0
DWIDTH 15 0
BBX 14 35 1 -3
BITMAP
1F80
1FC0
1FC0
3FE0
3DE0
79F0
70F0
E078
4030
0000
0000
0600
3FE0
7FF0
FFF8
FFF8
FFFC
FFFC
FFFC
FFFC
FDF8
FCF8
78F8
78F8
7800
79E0
3DF8
3DF8
3D78
3C78
3FF8
1FF0
1FF0
0BA0
0200
ENDCHAR
STARTCHAR Gbreve
ENCODING 286
SWIDTH 499 0
DWIDTH 14 0
BBX 12 34 1 -3
BITMAP
7800
78F0
38F0
3FE0
3FE0
2FC0
09C0
0140
0000
0000
0E00
3F80
7FE0
FFF0
FFF0
FFF0
FFF0
FFF0
FFF0
FBF0
F9F0
79F0
78F0
7A00
7BF0
7BF0
7BF0
7CF0
3DF0
3FE0
3FE0
1FC0
0A80
0800
ENDCHAR
STARTCHAR gbreve
ENCODING 287
SWIDTH 546 0
DWIDTH 15 0
BBX 14 34 1 -3
BITMAP
3800
3878
3870
3FF0
1FE0
17E0
05C0
00A0
0000
0000
0600
3FE0
7FF0
FFF8
FFF8
FFFC
FFFC
FFFC
FFFC
FDF8
FCF8
78F8
78F8
7800
79E0
3DF8
3DF8
3D78
3C78
3FF8
1FF0
1FF0
0BA0
0200
ENDCHAR
STARTCHAR Gdotaccent
ENCODING 288
SWIDTH 499 0
DWIDTH 14 0
BBX 12 34 1 -3
BITMAP
7F80
3F80
3F80
3F80
3FC0
1F80
1F80
1F80
1000
0000
0E00
3F80
7FE0
FFF0
FFF0
FFF0
FFF0
FFF0
FFF0
FBF0
F9F0
79F0
78F0
7A00
7BF0
7BF0
7BF0
7CF0
3DF0
3FE0
3FE0
1FC0
0A80
0800
ENDCHAR
STARTCHAR gdotaccent
ENCODING 289
SWIDTH 546 0
DWIDTH 15 0
BBX 14 34 1 -3
BITMAP
3FC0
1FC0
1FC0
1FC0
1FC0
1FC0
1FC0
1FC0
1800
0000
0600
3FE0
7FF0
FFF8
FFF8
FFFC
FFFC
FFFC
FFFC
FDF8
FCF8
78F8
78F8
7800
79E0
3DF8
3DF8
3D78
3C78
3FF8
1FF0
1FF0
0BA0
0200
ENDCHAR
STARTCHAR Gcommaaccent
ENCODING 290
SWIDTH 499 0
DWIDTH 14 0
BBX 12 38 1 -17
BITMAP
0E00
3F80
7FE0
FFF0
FFF0
FFF0
FFF0
FFF0
FFF0
FBF0
F9F0
79F0
78F0
7A00
7BF0
7BF0
7BF0
7CF0
3DF0
3FE0
3FE0
1FC0
0A80
0800
0000
1420
0FC0
0FC0
0FC0
0FC0
0FC0
1FC0
01C0
01C0
01C0
01C0
01C0
0180
ENDCHAR
STARTCHAR Hcircumflex
ENCODING 292
SWIDTH 726 0
DWIDTH 20 0
BBX 20 38 0 -6
BITMAP
01F800
03F800
03FC00
03FC00
07BE00
071E00
0F0F00
0E0700
1C0600
000000
000000
009500
FF9FF0
3F8FE0
3F0FC0
3F0FC0
1F1F80
1F1F80
1F1F80
1F1F80
1F1F00
0F1F00
0F5F00
0FFF00
0FFF00
0FFF00
0F9E00
0F1E00
0F9E00
079E00
079E00
07BE00
0D1E00
001600
000000
002000
002000
002000
ENDCHAR
STARTCHAR hcircumflex
ENCODING 293
SWIDTH 730 0
DWIDTH 20 0
BBX 20 34 0 -2
BITMAP
01F800
01F800
03FC00
03FC00
07BE00
079E00
0F0F00
0E0700
0C0200
000000
000000
03DFC0
FF8FF0
3F8FE0
1F8FC0
1F8FC0
1F8FC0
1F8F80
1F0F80
1F0F80
1F0F80
0F0F00
0FFF00
0FFF00
0FFF00
0FFF00
0F1F00
0F9E00
0F9E00
079E00
079E00
07BE00
0C1E00
001200
ENDCHAR
STARTCHAR hbar
ENCODING 295
SWIDTH 704 0
DWIDTH 20 0
BBX 19 23 0 -2
BITMAP
039F80
FF9FE0
3F1FC0
1F1FC0
1FFF80
1FFF80
1FFF80
1FFF00
1FFF00
1F1F00
0F1F00
0FFF00
0FFE00
0FFE00
0FFE00
0F1E00
0F9F00
0F9E00
079E00
079E00
07BE00
0C1E00
001200
ENDCHAR
STARTCHAR Itilde
ENCODING 296
SWIDTH 401 0
DWIDTH 11 0
BBX 13 31 -1 -2
BITMAP
21C0
F3E0
FFF8
FFF0
7FF0
3C40
0000
0000
7FF0
3FE0
1FE0
0FC0
0FC0
0FC0
0FC0
0FC0
0FC0
0FC0
0F80
0F80
0F80
0F80
0780
0780
0780
0780
0780
0780
0580
0540
0100
ENDCHAR
STARTCHAR itilde
ENCODING 297
SWIDTH 411 0
DWIDTH 12 0
BBX 13 30 -1 -1
BITMAP
21C0
71E0
FFF0
FFF8
7FF0
3C60
0000
0000
4D80
3FF0
1FE0
0FC0
0FC0
07C0
0FC0
0FC0
0FC0
0F80
0F80
0F80
0780
0780
0780
0780
0780
0780
0780
0780
0780
0180
ENDCHAR
STARTCHAR Imacron
ENCODING 298
SWIDTH 401 0
DWIDTH 11 0
BBX 11 29 0 -2
BITMAP
7040
7FC0
7FC0
7BC0
0000
0000
FFE0
7FC0
3FC0
1F80
1F80
1F80
1F80
1F80
1F80
1F80
1F00
1F00
1F00
1F00
0F00
0F00
0F00
0F00
0F00
0F00
0B00
0A80
0200
ENDCHAR
STARTCHAR imacron
ENCODING 299
SWIDTH 411 0
DWIDTH 12 0
BBX 11 28 0 -1
BITMAP
7040
7FC0
7FC0
7BC0
0000
0000
9B00
7FE0
3FC0
1F80
1F80
0F80
1F80
1F80
1F80
1F00
1F00
1F00
0F00
0F00
0F00
0F00
0F00
0F00
0F00
0F00
0F00
0300
ENDCHAR
STARTCHAR Ibreve
ENCODING 300
SWIDTH 401 0
DWIDTH 11 0
BBX 12 33 0 -2
BITMAP
7000
70F0
78E0
3FE0
3FE0
2FC0
09C0
0140
0000
0000
FFE0
7FC0
3FC0
1F80
1F80
1F80
1F80
1F80
1F80
1F80
1F00
1F00
1F00
1F00
0F00
0F00
0F00
0F00
0F00
0F00
0B00
0A80
0200
ENDCHAR
STARTCHAR ibreve
ENCODING 301
SWIDTH 411 0
DWIDTH 12 0
BBX 12 32 0 -1
BITMAP
7000
70F0
78E0
7FE0
3FC0
2FC0
09C0
0140
0000
0000
9B00
7FE0
3FC0
1F80
1F80
0F80
1F80
1F80
1F80
1F00
1F00
1F00
0F00
0F00
0F00
0F00
0F00
0F00
0F00
0F00
0F00
0300
ENDCHAR
STARTCHAR Iogonek
ENCODING 302
SWIDTH 401 0
DWIDTH 11 0
BBX 11 32 0 -11
BITMAP
FFE0
7FC0
3FC0
1F80
1F80
1F80
1F80
1F80
1F80
1F80
1F00
1F00
1F00
1F00
0F00
0F00
0F00
0F00
0F00
0F00
0F00
0F00
0E00
0C00
1C00
1C00
1C00
1E00
1FC0
0FC0
0FC0
03C0
ENDCHAR
STARTCHAR iogonek
ENCODING 303
SWIDTH 412 0
DWIDTH 12 0
BBX 11 31 0 -10
BITMAP
9B00
7FE0
3FC0
1F80
1F80
0F80
1F80
1F80
1F00
1F00
1F00
1F00
0F00
0F00
0F00
0F00
0F00
0F00
0F00
0F00
0F00
0F00
0E00
0C00
1C00
1C00
1C00
1F00
0FE0
0FC0
07C0
ENDCHAR
STARTCHAR Idotaccent
ENCODING 304
SWIDTH 401 0
DWIDTH 11 0
BBX 11 33 0 -2
BITMAP
7F80
3F80
3F80
3F80
3F80
3F80
3F80
3F80
3000
0000
FFE0
7FC0
3FC0
1F80
1F80
1F80
1F80
1F80
1F80
1F80
1F00
1F00
1F00
1F00
0F00
0F00
0F00
0F00
0F00
0F00
0B00
0A80
0200
ENDCHAR
STARTCHAR dotlessi
ENCODING 305
SWIDTH 411 0
DWIDTH 12 0
BBX 11 22 0 -1
BITMAP
9B00
7FE0
3FC0
1F80
1F80
0F80
1F80
1F80
1F80
1F00
1F00
1F00
0F00
0F00
0F00
0F00
0F00
0F00
0F00
0F00
0F00
0300
ENDCHAR
STARTCHAR IJ
ENCODING 306
SWIDTH 908 0
DWIDTH 25 0
BBX 25 23 0 -2
BITMAP
FBE00000
7FC07F80
3FC07F00
1FC03E00
1F803E00
1FC03E00
1F803E00
1F803C00
1F803C00
1F803C00
1F803C00
1F803C00
1F803C00
1F803C00
0F873C00
0F0F3800
0F8F3800
0F8F7800
0F0FF800
0F07F000
0B837000
0D815000
01000000
ENDCHAR
STARTCHAR ij
ENCODING 307
SWIDTH 901 0
DWIDTH 25 0
BBX 25 22 0 -1
BITMAP
9F80F000
7FE0FF80
3FC07E00
1FC07F00
1F807E00
0FC07E00
1F807E00
1F807E00
1F807E00
1F807E00
1F807E00
1F807E00
0F803C00
0F803C00
0F073C00
0F8F3C00
0F0F3C00
0F073C00
0F07FC00
0F07F800
0703F800
0100A800
ENDCHAR
STARTCHAR Jcircumflex
ENCODING 308
SWIDTH 455 0
DWIDTH 13 0
BBX 15 33 -1 -1
BITMAP
03F0
07F0
07F8
07F8
0F7C
0E3C
1E1E
1C0E
380C
0000
0000
0000
07F8
03F0
03F0
03F0
01E0
03E0
03E0
03E0
03E0
03C0
03C0
03C0
03C0
33C0
F3C0
73C0
73C0
7F80
7F80
3F80
0A80
ENDCHAR
STARTCHAR jcircumflex
ENCODING 309
SWIDTH 458 0
DWIDTH 13 0
BBX 15 33 -1 -1
BITMAP
03F0
07F0
07F8
07F8
0F7C
0E3C
1E1E
1C0E
1804
0000
0000
0B80
07F8
07F0
03F0
03F0
03F0
03E0
03E0
03E0
03E0
03E0
03E0
01E0
03E0
33E0
F3E0
7BE0
7BC0
7FE0
3FC0
3FC0
0740
ENDCHAR
STARTCHAR Kcommaaccent
ENCODING 310
SWIDTH 580 0
DWIDTH 16 0
BBX 16 37 0 -16
BITMAP
3F50
FF3F
3F3C
3F78
1F70
1F70
1FF0
0FE0
0FE0
0FE0
0FE0
0FE0
0FE0
0FE0
07F0
0FF0
07F0
0770
0770
0738
0738
0528
0000
0000
0508
03F0
03F0
03F0
03F0
03F0
03F0
0070
0070
0070
0070
0070
0060
ENDCHAR
STARTCHAR kcommaaccent
ENCODING 311
SWIDTH 636 0
DWIDTH 18 0
BBX 18 37 0 -16
BITMAP
02AE00
FFBFC0
3F3E00
3F3C00
1F3800
1FB800
0FF800
0FF800
0FF000
0FF000
0FF000
0FE000
0FE000
07E000
07F000
07F000
07F000
07B800
073800
071C00
031C00
029600
000000
000000
028800
01F800
01F800
01F800
03F800
03F800
03F800
003800
003800
003800
003800
003800
003000
ENDCHAR
STARTCHAR kgreenlandic
ENCODING 312
SWIDTH 636 0
DWIDTH 18 0
BBX 18 22 0 -1
BITMAP
02AE00
FFBFC0
3F3E00
3F3C00
1F3800
1FB800
0FF800
0FF800
0FF000
0FF000
0FF000
0FE000
0FE000
07E000
07F000
07F000
07F000
07B800
073800
071C00
031C00
029600
ENDCHAR
STARTCHAR Lacute
ENCODING 313
SWIDTH 416 0
DWIDTH 12 0
BBX 15 31 0 -2
BITMAP
0018
0038
007C
00FE
03FC
03E0
0200
0000
FEC0
7F80
3F00
3F00
3E00
3F00
3F00
3F00
3E00
3E00
1F00
1F00
1F00
1F00
1F00
1E00
1F00
1FF8
0FF0
0FF0
0FF0
09F0
09A0
ENDCHAR
STARTCHAR lacute
ENCODING 314
SWIDTH 438 0
DWIDTH 12 0
BBX 16 31 0 -2
BITMAP
0008
001C
007C
00FF
01FC
03E0
0100
0000
0FF0
FFC0
3F80
1F80
3F80
1F80
1F00
1F00
1F00
1F00
0F00
0F00
0F00
0F00
0F00
0F00
0F00
0FF8
0FF8
07F0
0770
0470
0420
ENDCHAR
STARTCHAR Lcommaaccent
ENCODING 315
SWIDTH 416 0
DWIDTH 12 0
BBX 13 38 0 -17
BITMAP
FEC0
7F80
3F00
3F00
3E00
3F00
3F00
3F00
3E00
3E00
1F00
1F00
1F00
1F00
1F00
1E00
1F00
1FF8
0FF0
0FF0
0FF0
09F0
09A0
0000
0000
1C40
1FC0
1FC0
1FC0
1FC0
1FC0
1FC0
01C0
01C0
01C0
0380
0380
0380
ENDCHAR
STARTCHAR lcommaaccent
ENCODING 316
SWIDTH 438 0
DWIDTH 12 0
BBX 13 37 0 -16
BITMAP
0FF0
FFC0
3F80
1F80
3F80
1F80
1F00
1F00
1F00
1F00
0F00
0F00
0F00
0F00
0F00
0F00
0F00
0FF8
0FF8
07F0
0770
0470
0420
0000
1420
0FC0
0FC0
0FC0
0FC0
0FC0
0FC0
01C0
01C0
01C0
01C0
01C0
0180
ENDCHAR
STARTCHAR Lcaron
ENCODING 317
SWIDTH 714 0
DWIDTH 20 0
BBX 19 23 0 -2
BITMAP
FED420
7F8FE0
3F0FE0
3F0FE0
3E0FE0
3F0FE0
3F0FE0
3F0FE0
3F0FE0
3E00E0
1F00E0
1F00C0
1F01C0
1F01C0
1F0000
1E0000
1F0000
1FF800
0FF000
0FF000
0FF000
09F000
09A000
ENDCHAR
STARTCHAR lcaron
ENCODING 318
SWIDTH 782 0
DWIDTH 22 0
BBX 21 23 0 -2
BITMAP
0FF508
FFC3F8
3F83F8
1F83F8
3F83F8
1F83F8
1F03F8
1F07F8
1F03F8
1F0038
0F0038
0F0070
0F0070
0F0070
0F0000
0F0000
0F0000
0FF800
0FF800
07F000
077000
047000
042000
ENDCHAR
STARTCHAR Ldotaccent
ENCODING 319
SWIDTH 567 0
DWIDTH 16 0
BBX 17 23 0 -2
BITMAP
FEC000
7F8000
3F0000
3F0000
3E0600
3F7F80
3F3F80
3F3F80
3E3F80
3E3F80
1F3F80
1F3F80
1F3F80
1F0000
1F0000
1E0000
1F0000
1FF800
0FF000
0FF000
0FF000
09F000
09A000
ENDCHAR
STARTCHAR ldot
ENCODING 320
SWIDTH 660 0
DWIDTH 18 0
BBX 19 23 0 -2
BITMAP
0FF000
FFC000
3F8000
1F8000
3F8000
1F8000
1F1FE0
1F0FE0
1F0FE0
1F0FE0
0F0FE0
0F0FE0
0F0FE0
0F0FE0
0F0C00
0F0000
0F0000
0FF800
0FF800
07F000
077000
047000
042000
ENDCHAR
STARTCHAR Lslash
ENCODING 321
SWIDTH 428 0
DWIDTH 12 0
BBX 13 23 0 -2
BITMAP
FEC0
3F80
3F00
3F00
3E00
1F00
1F30
1FF0
1FF0
3FF8
FFF8
7FE0
7F80
7F00
2F00
0E00
0F00
0FF8
0FF0
0FF0
0FF0
05F0
05A0
ENDCHAR
STARTCHAR lslash
ENCODING 322
SWIDTH 457 0
DWIDTH 13 0
BBX 14 23 0 -2
BITMAP
0FF0
FFC0
3F80
1F80
1F80
1F88
1FB8
1FF8
1FFC
1FFC
FFFC
7FE0
7F80
3F00
2F00
0F80
0F00
07F8
07F8
07F8
0770
0470
0410
ENDCHAR
STARTCHAR Nacute
ENCODING 323
SWIDTH 610 0
DWIDTH 17 0
BBX 17 34 1 -5
BITMAP
000600
000E00
001F00
003F80
00FF00
00F800
008000
000000
02C000
FE7F00
FE7C00
7E7C00
7F7800
7F7800
3F7800
3FF800
3FF800
3FF800
3FF800
3FF800
3FF000
1FF000
1DF000
1DF000
1DF000
1DF000
1CF000
1CF000
1CF000
1C5000
1A5000
12A000
124000
020000
ENDCHAR
STARTCHAR nacute
ENCODING 324
SWIDTH 664 0
DWIDTH 19 0
BBX 19 32 0 -3
BITMAP
000180
000380
000780
000FE0
003FC0
003C00
002000
000000
9F9820
7F9FC0
3F9F80
3F9F80
3FDF00
3FDF00
3FDF00
3FDF00
1FFE00
1FFE00
1FFE00
1FFE00
1FFE00
1FFE00
1EFE00
0EFC00
0EFC00
0E7C00
0E7C00
0E7C00
0E7800
0E7800
0D5800
001000
ENDCHAR
STARTCHAR Ncommaaccent
ENCODING 325
SWIDTH 610 0
DWIDTH 17 0
BBX 16 40 1 -19
BITMAP
02C0
FE7F
FE7C
7E7C
7F78
7F78
3F78
3FF8
3FF8
3FF8
3FF8
3FF8
3FF0
1FF0
1DF0
1DF0
1DF0
1DF0
1CF0
1CF0
1CF0
1C50
1A50
12A0
1240
0200
0000
0510
03F0
07F0
07F0
07F0
07F0
07F0
0070
0070
0070
0070
0060
0060
ENDCHAR
STARTCHAR ncommaaccent
ENCODING 326
SWIDTH 664 0
DWIDTH 19 0
BBX 19 38 0 -17
BITMAP
9F9820
7F9FC0
3F9F80
3F9F80
3FDF00
3FDF00
3FDF00
3FDF00
1FFE00
1FFE00
1FFE00
1FFE00
1FFE00
1FFE00
1EFE00
0EFC00
0EFC00
0E7C00
0E7C00
0E7C00
0E7800
0E7800
0D5800
001000
000000
01C400
01FC00
01FC00
01FC00
01FC00
01FC00
01FC00
001C00
001C00
001C00
003800
003800
003000
ENDCHAR
STARTCHAR Ncaron
ENCODING 327
SWIDTH 610 0
DWIDTH 17 0
BBX 16 38 1 -5
BITMAP
1010
3818
3C3C
3C7C
1E78
1EF8
0FF0
0FF0
07E0
07E0
0000
0000
02C0
FE7F
FE7C
7E7C
7F78
7F78
3F78
3FF8
3FF8
3FF8
3FF8
3FF8
3FF0
1FF0
1DF0
1DF0
1DF0
1DF0
1CF0
1CF0
1CF0
1C50
1A50
12A0
1240
0200
ENDCHAR
STARTCHAR ncaron
ENCODING 328
SWIDTH 664 0
DWIDTH 19 0
BBX 19 36 0 -3
BITMAP
040200
0E0600
0F0F00
0F1F00
079E00
07FE00
03FC00
03FC00
01F800
01F800
000000
000000
9F9820
7F9FC0
3F9F80
3F9F80
3FDF00
3FDF00
3FDF00
3FDF00
1FFE00
1FFE00
1FFE00
1FFE00
1FFE00
1FFE00
1EFE00
0EFC00
0EFC00
0E7C00
0E7C00
0E7C00
0E7800
0E7800
0D5800
001000
ENDCHAR
STARTCHAR Omacron
ENCODING 332
SWIDTH 504 0
DWIDTH 14 0
BBX 12 28 1 -2
BITMAP
7840
7FE0
7FC0
3FC0
0000
0700
3FC0
7FE0
7FF0
FFF0
FFF0
FFF0
FFF0
FFF0
FDF0
F9F0
79F0
79F0
79F0
79F0
79E0
79F0
39E0
7FE0
3FC0
3FC0
0940
0940
ENDCHAR
STARTCHAR omacron
ENCODING 333
SWIDTH 545 0
DWIDTH 15 0
BBX 14 28 1 -2
BITMAP
3820
3FE0
3FE0
3FE0
0000
0580
3FE0
7FF0
7FF8
FFFC
FFF8
FFF8
FFFC
FFFC
FDFC
F8FC
78F8
78F8
78F8
78F8
78F0
7DF0
3DF0
3FF0
3FE0
1FE0
05C0
0140
ENDCHAR
STARTCHAR Obreve
ENCODING 334
SWIDTH 504 0
DWIDTH 14 0
BBX 12 33 1 -2
BITMAP
7800
3870
38F0
3FF0
3FE0
1FC0
05C0
0140
0000
0000
0700
3FC0
7FE0
7FF0
FFF0
FFF0
FFF0
FFF0
FFF0
FDF0
F9F0
79F0
79F0
79F0
79F0
79E0
79F0
39E0
7FE0
3FC0
3FC0
0940
0940
ENDCHAR
STARTCHAR obreve
ENCODING 335
SWIDTH 545 0
DWIDTH 15 0
BBX 14 33 1 -2
BITMAP
7800
3870
38F0
3FF0
3FE0
1FE0
05C0
00A0
0000
0000
0580
3FE0
7FF0
7FF8
FFFC
FFF8
FFF8
FFFC
FFFC
FDFC
F8FC
78F8
78F8
78F8
78F8
78F0
7DF0
3DF0
3FF0
3FE0
1FE0
05C0
0140
ENDCHAR
STARTCHAR Ohungarumlaut
ENCODING 336
SWIDTH 504 0
DWIDTH 14 0
BBX 14 34 1 -2
BITMAP
1040
3870
3EFC
3CF0
78F0
71E0
E1C0
C380
C100
0000
0000
0700
3FC0
7FE0
7FF0
FFF0
FFF0
FFF0
FFF0
FFF0
FDF0
F9F0
79F0
79F0
79F0
79F0
79E0
79F0
39E0
7FE0
3FC0
3FC0
0940
0940
ENDCHAR
STARTCHAR ohungarumlaut
ENCODING 337
SWIDTH 545 0
DWIDTH 15 0
BBX 14 34 1 -2
BITMAP
1820
1C78
1E7C
3E78
3CF0
78E0
71C0
E180
4100
0000
0000
0580
3FE0
7FF0
7FF8
FFFC
FFF8
FFF8
FFFC
FFFC
FDFC
F8FC
78F8
78F8
78F8
78F8
78F0
7DF0
3DF0
3FF0
3FE0
1FE0
05C0
0140
ENDCHAR
STARTCHAR OE
ENCODING 338
SWIDTH 789 0
DWIDTH 22 0
BBX 20 25 1 -4
BITMAP
071E00
3FFFF0
7FFFF0
7FFFE0
FFFFE0
FFFFC0
FFFFC0
FFFFC0
FFFFC0
FDFBC0
F9F800
F9F800
79FF00
79FF00
79FF00
79FF00
79F000
39F600
7FFF80
3FFF00
3FCF00
095500
095100
095100
011100
ENDCHAR
STARTCHAR oe
ENCODING 339
SWIDTH 778 0
DWIDTH 22 0
BBX 20 23 1 -2
BITMAP
068000
3FFFF0
7FFFE0
7FFFE0
FFFFC0
FFFFC0
FFFFC0
FFFFC0
FFFF80
FDFF80
79F880
79F800
78FF00
78FF00
78FF00
79FF00
39F200
3DF000
3FFF00
3FFF00
1FFF00
09DF00
014100
ENDCHAR
STARTCHAR Racute
ENCODING 340
SWIDTH 599 0
DWIDTH 17 0
BBX 17 31 1 -2
BITMAP
000600
000E00
001E00
003F80
00FF00
00F000
008000
000000
0F2000
FFF800
FFFC00
7FFE00
3FFE00
3FFE00
1FFE00
1FFE00
1FFE00
1F3E00
1F3E00
1F3E00
1F7C00
1FFC00
0FFC00
0FF800
0F7800
0F7800
0F7800
0F3800
0F3800
075C00
032400
ENDCHAR
STARTCHAR racute
ENCODING 341
SWIDTH 616 0
DWIDTH 17 0
BBX 17 31 1 -2
BITMAP
000600
000E00
001F00
003F80
00FF00
00F000
008000
000000
072000
FFF800
FFFE00
7FFF00
3FFF00
3FFF00
1FFF00
1FFE00
1FFE00
1F3E00
1F1E00
1F3E00
1F3C00
1FFC00
1FFC00
1FF800
0F7000
1F7800
0F7800
0F7800
0F7800
0F7800
085800
ENDCHAR
STARTCHAR Rcommaaccent
ENCODING 342
SWIDTH 599 0
DWIDTH 17 0
BBX 15 37 1 -16
BITMAP
0F20
FFF8
FFFC
7FFE
3FFE
3FFE
1FFE
1FFE
1FFE
1F3E
1F3E
1F3E
1F7C
1FFC
0FFC
0FF8
0F78
0F78
0F78
0F38
0F38
075C
0324
0000
0610
07E0
07E0
07F0
07F0
07F0
07F0
0060
0060
00E0
00E0
00E0
00C0
ENDCHAR
STARTCHAR rcommaaccent
ENCODING 343
SWIDTH 616 0
DWIDTH 17 0
BBX 16 38 1 -17
BITMAP
0720
FFF8
FFFE
7FFF
3FFF
3FFF
1FFF
1FFE
1FFE
1F3E
1F1E
1F3E
1F3C
1FFC
1FFC
1FF8
0F70
1F78
0F78
0F78
0F78
0F78
0858
0000
0000
0710
07F0
07F0
07F0
07F0
07F0
07F0
0070
0070
0070
00E0
00E0
00E0
ENDCHAR
STARTCHAR Rcaron
ENCODING 344
SWIDTH 599 0
DWIDTH 17 0
BBX 15 35 1 -2
BITMAP
0808
1C1C
3C1E
1E3C
1E7C
0F78
0FF8
07F0
07F0
03E0
0000
0000
0F20
FFF8
FFFC
7FFE
3FFE
3FFE
1FFE
1FFE
1FFE
1F3E
1F3E
1F3E
1F7C
1FFC
0FFC
0FF8
0F78
0F78
0F78
0F38
0F38
075C
0324
ENDCHAR
STARTCHAR rcaron
ENCODING 345
SWIDTH 616 0
DWIDTH 17 0
BBX 16 35 1 -2
BITMAP
0808
3C1C
3C3E
1E3C
1E7C
0F78
0FF8
07F0
07F0
07E0
0000
0000
0720
FFF8
FFFE
7FFF
3FFF
3FFF
1FFF
1FFE
1FFE
1F3E
1F1E
1F3E
1F3C
1FFC
1FFC
1FF8
0F70
1F78
0F78
0F78
0F78
0F78
0858
ENDCHAR
STARTCHAR Sacute
ENCODING 346
SWIDTH 504 0
DWIDTH 14 0
BBX 15 31 1 -2
BITMAP
0018
0038
007C
00FE
01FC
03E0
0200
0000
0300
1FC0
3FE0
7FF8
7FF0
FFF0
FFF0
FFF0
FFF0
F9F0
F9F0
FC08
FF80
7FC0
3FE0
07E0
05F0
F9E0
7FE0
7FC0
3FC0
1FC0
0900
ENDCHAR
STARTCHAR sacute
ENCODING 347
SWIDTH 481 0
DWIDTH 13 0
BBX 15 31 1 -2
BITMAP
0018
0038
007C
00FE
03FC
03C0
0200
0000
0E00
1FC0
3FE0
7FF0
FFF0
FFF0
FFF0
FFF0
FFE0
FBE0
F9E0
F860
FF00
7F80
3FC0
1FC0
03C0
79C0
79C0
7FC0
3F80
3F80
1000
ENDCHAR
STARTCHAR Scircumflex
ENCODING 348
SWIDTH 504 0
DWIDTH 14 0
BBX 13 34 1 -2
BITMAP
0FC0
0FC0
1FE0
1FE0
3DF0
3CF0
7878
7038
6010
0000
0000
0300
1FC0
3FE0
7FF8
7FF0
FFF0
FFF0
FFF0
FFF0
F9F0
F9F0
FC08
FF80
7FC0
3FE0
07E0
05F0
F9E0
7FE0
7FC0
3FC0
1FC0
0900
ENDCHAR
STARTCHAR scircumflex
ENCODING 349
SWIDTH 481 0
DWIDTH 13 0
BBX 13 34 1 -2
BITMAP
0F80
1FC0
1FC0
3FE0
3DE0
78F0
70F0
E078
4030
0000
0000
0E00
1FC0
3FE0
7FF0
FFF0
FFF0
FFF0
FFF0
FFE0
FBE0
F9E0
F860
FF00
7F80
3FC0
1FC0
03C0
79C0
79C0
7FC0
3F80
3F80
1000
ENDCHAR
STARTCHAR Scedilla
ENCODING 350
SWIDTH 504 0
DWIDTH 14 0
BBX 13 30 1 -9
BITMAP
0300
1FC0
3FE0
7FF8
7FF0
FFF0
FFF0
FFF0
FFF0
F9F0
F9F0
FC08
FF80
7FC0
3FE0
07E0
05F0
F9E0
7FE0
7FC0
3FC0
1FC0
0B00
0600
0600
07C0
00C0
00C0
07C0
07C0
ENDCHAR
STARTCHAR scedilla
ENCODING 351
SWIDTH 481 0
DWIDTH 13 0
BBX 12 30 1 -9
BITMAP
0E00
1FC0
3FE0
7FF0
FFF0
FFF0
FFF0
FFF0
FFE0
FBE0
F9E0
F860
FF00
7F80
3FC0
1FC0
03C0
79C0
79C0
7FC0
3F80
3F80
1600
0C00
0C00
0F80
0180
0180
0F80
0F80
ENDCHAR
STARTCHAR Scaron
ENCODING 352
SWIDTH 503 0
DWIDTH 14 0
BBX 13 37 1 -2
BITMAP
6060
F078
70F0
79F0
7DE0
3FE0
3FC0
1FC0
1F80
1580
0000
0000
0000
0000
0300
1FC0
3FE0
7FF8
7FF0
FFF0
FFF0
FFF0
FFF0
F9F0
F9F0
FC08
FF80
7FC0
3FE0
07F0
05E0
F9E0
7FE0
7FC0
3FC0
1F40
0980
ENDCHAR
STARTCHAR scaron
ENCODING 353
SWIDTH 479 0
DWIDTH 13 0
BBX 12 37 1 -2
BITMAP
6060
E0F0
F0F0
79F0
79E0
7FC0
3FC0
3F80
1F80
1F00
0000
0000
0000
0000
0E00
1FC0
3FE0
7FF0
FFF0
FFF0
FFF0
FFE0
FFE0
FBE0
F9E0
F860
FF00
7F80
3FC0
1FC0
03C0
79C0
7BC0
7FC0
3F80
3F80
1000
ENDCHAR
STARTCHAR Tcommaaccent
ENCODING 354
SWIDTH 622 0
DWIDTH 17 0
BBX 15 31 1 -11
BITMAP
FFFE
7FFE
7FFC
7FFC
3FFC
3FFC
3FFC
3FFC
3FFC
33C4
03C0
03C0
03C0
03C0
03C0
03C0
03C0
03C0
03C0
03C0
03C0
03C0
03C0
0180
0180
0300
03E0
0060
0060
01E0
03E0
ENDCHAR
STARTCHAR tcommaaccent
ENCODING 355
SWIDTH 683 0
DWIDTH 19 0
BBX 18 32 0 -11
BITMAP
07FE00
FFFFC0
7FFFC0
3FFF80
3FFF80
1FFF00
1FFF00
1FFF00
1FFF00
1FF700
18F900
00F800
00F800
00F800
00F800
00F800
00F800
00F000
007800
007000
00F000
007000
007000
003000
006800
006000
00E000
007C00
009800
001800
007800
007800
ENDCHAR
STARTCHAR Tcaron
ENCODING 356
SWIDTH 622 0
DWIDTH 17 0
BBX 15 36 1 -3
BITMAP
1010
7818
3C3C
3C7C
1E78
1EF8
0FF0
0FE0
0FE0
07C0
0000
0000
0000
FFFE
7FFE
7FFC
7FFC
3FFC
3FFC
3FFC
3FFC
3FFC
33C4
03C0
03C0
03C0
03C0
03C0
03C0
03C0
03C0
03C0
03C0
03C0
03C0
02C0
ENDCHAR
STARTCHAR tcaron
ENCODING 357
SWIDTH 622 0
DWIDTH 17 0
BBX 15 36 1 -3
BITMAP
0808
3C1C
3C3E
1E3C
1E7C
0F78
0FF8
07F0
07F0
03E0
0000
0000
0000
FFFE
7FFE
7FFC
7FFC
3FFC
3FFC
3FFC
3FFC
3FFC
33C4
03C0
03C0
03C0
03C0
03C0
03C0
03C0
03C0
03C0
03C0
03C0
03C0
02C0
ENDCHAR
STARTCHAR Utilde
ENCODING 360
SWIDTH 637 0
DWIDTH 18 0
BBX 18 31 0 -2
BITMAP
085000
1C7C00
3FFC00
1FFE00
0FFC00
070800
000000
000000
0F2000
FF3FC0
3F3F00
3F3F00
3F3F00
3F3E00
1F3E00
1F3E00
1F3E00
1F3C00
1F3C00
1F3C00
1F3C00
1F3C00
1F3C00
1F3C00
0F3C00
0FF800
0FF800
0FF800
076000
026000
002000
ENDCHAR
STARTCHAR utilde
ENCODING 361
SWIDTH 708 0
DWIDTH 20 0
BBX 20 29 0 0
BITMAP
042800
0E3E00
1FFE00
0FFF00
07FE00
038400
000000
000000
078000
FF8F80
3F8FF0
3F9FE0
3F8FC0
1F8FC0
1F8F80
1F8F80
1F8F80
0F8F00
0F8F00
0F9F00
0F9F00
0F9F00
0F9F00
0F9F00
079E00
07FF00
07FE00
03FE00
01AC00
ENDCHAR
STARTCHAR Umacron
ENCODING 362
SWIDTH 637 0
DWIDTH 18 0
BBX 18 28 0 -2
BITMAP
0F0400
0FFC00
0FFC00
0BFC00
000000
0F2000
FF3FC0
3F3F00
3F3F00
3F3F00
3F3E00
1F3E00
1F3E00
1F3E00
1F3C00
1F3C00
1F3C00
1F3C00
1F3C00
1F3C00
1F3C00
0F3C00
0FF800
0FF800
0FF800
076000
026000
002000
ENDCHAR
STARTCHAR umacron
ENCODING 363
SWIDTH 708 0
DWIDTH 20 0
BBX 20 26 0 0
BITMAP
078200
07FE00
07FE00
05FE00
000000
078000
FF8F80
3F8FF0
3F9FE0
3F8FC0
1F8FC0
1F8F80
1F8F80
1F8F80
0F8F00
0F8F00
0F9F00
0F9F00
0F9F00
0F9F00
0F9F00
079E00
07FF00
07FE00
03FE00
01AC00
ENDCHAR
STARTCHAR Ubreve
ENCODING 364
SWIDTH 637 0
DWIDTH 18 0
BBX 18 33 0 -2
BITMAP
0F0000
070E00
071E00
07FE00
07FC00
03FC00
00B800
002800
000000
000000
0F2000
FF3FC0
3F3F00
3F3F00
3F3F00
3F3E00
1F3E00
1F3E00
1F3E00
1F3C00
1F3C00
1F3C00
1F3C00
1F3C00
1F3C00
1F3C00
0F3C00
0FF800
0FF800
0FF800
076000
026000
002000
ENDCHAR
STARTCHAR ubreve
ENCODING 365
SWIDTH 708 0
DWIDTH 20 0
BBX 20 31 0 0
BITMAP
078000
038700
038F00
03FF00
03FE00
01FE00
005C00
000A00
000000
000000
078000
FF8F80
3F8FF0
3F9FE0
3F8FC0
1F8FC0
1F8F80
1F8F80
1F8F80
0F8F00
0F8F00
0F9F00
0F9F00
0F9F00
0F9F00
0F9F00
079E00
07FF00
07FE00
03FE00
01AC00
ENDCHAR
STARTCHAR Uring
ENCODING 366
SWIDTH 637 0
DWIDTH 18 0
BBX 18 33 0 -2
BITMAP
01E000
03F000
073800
031800
031800
03B000
03F000
00E000
000000
000000
0F2000
FF3FC0
3F3F00
3F3F00
3F3F00
3F3E00
1F3E00
1F3E00
1F3E00
1F3C00
1F3C00
1F3C00
1F3C00
1F3C00
1F3C00
1F3C00
0F3C00
0FF800
0FF800
0FF800
076000
026000
002000
ENDCHAR
STARTCHAR uring
ENCODING 367
SWIDTH 708 0
DWIDTH 20 0
BBX 20 31 0 0
BITMAP
00F800
01FC00
01DC00
018C00
018C00
01FC00
00F800
007000
000000
000000
078000
FF8F80
3F8FF0
3F9FE0
3F8FC0
1F8FC0
1F8F80
1F8F80
1F8F80
0F8F00
0F8F00
0F9F00
0F9F00
0F9F00
0F9F00
0F9F00
079E00
07FF00
07FE00
03FE00
01AC00
ENDCHAR
STARTCHAR Uhungarumlaut
ENCODING 368
SWIDTH 637 0
DWIDTH 18 0
BBX 18 34 0 -2
BITMAP
020C00
038E00
07DF80
079F00
0F1E00
0E3C00
0E3800
1C7000
182000
000000
000000
0F2000
FF3FC0
3F3F00
3F3F00
3F3F00
3F3E00
1F3E00
1F3E00
1F3E00
1F3C00
1F3C00
1F3C00
1F3C00
1F3C00
1F3C00
1F3C00
0F3C00
0FF800
0FF800
0FF800
076000
026000
002000
ENDCHAR
STARTCHAR uhungarumlaut
ENCODING 369
SWIDTH 708 0
DWIDTH 20 0
BBX 20 32 0 0
BITMAP
010600
01C700
03EFC0
03CF80
078F00
071E00
0F1C00
0E3800
0C1000
000000
000000
078000
FF8F80
3F8FF0
3F9FE0
3F8FC0
1F8FC0
1F8F80
1F8F80
1F8F80
0F8F00
0F8F00
0F9F00
0F9F00
0F9F00
0F9F00
0F9F00
079E00
07FF00
07FE00
03FE00
01AC00
ENDCHAR
STARTCHAR Uogonek
ENCODING 370
SWIDTH 637 0
DWIDTH 18 0
BBX 18 29 0 -8
BITMAP
0F2000
FF3FC0
3F3F00
3F3F00
3F3F00
3F3E00
1F3E00
1F3E00
1F3E00
1F3C00
1F3C00
1F3C00
1F3C00
1F3C00
1F3C00
1F3C00
0F3C00
0FF800
0FF800
0FF800
076000
02E000
00E000
00E000
00E000
00F100
007E00
007E00
003E00
ENDCHAR
STARTCHAR uogonek
ENCODING 371
SWIDTH 662 0
DWIDTH 19 0
BBX 20 29 0 -8
BITMAP
078000
FF8F80
3F8FF0
3F9FC0
3F8FC0
1F8FC0
1F8F80
1F8F80
1F8F80
0F8F00
0F8F00
0F9F00
0F9F00
0F9F00
0F9F00
0F9F00
079E00
07FF00
07FE00
07FE00
01EC00
00E000
00E000
00C000
00E000
00F200
00FE00
007E00
003E00
ENDCHAR
STARTCHAR Wcircumflex
ENCODING 372
SWIDTH 777 0
DWIDTH 22 0
BBX 22 33 0 -1
BITMAP
00F800
01FC00
01FC00
01FE00
03DF00
038F00
070780
070380
0E0300
000000
000000
003180
1F39F0
FF79FC
3F7BE0
1F7BE0
0F7BC0
0F7FC0
0F7F80
0FFF80
07FF00
07FF00
03FF80
03FF00
03FF00
01FF00
01FE00
01DE00
01DE00
00CC00
00CC00
00DC00
002000
ENDCHAR
STARTCHAR wcircumflex
ENCODING 373
SWIDTH 704 0
DWIDTH 20 0
BBX 20 32 0 0
BITMAP
01F800
01F800
03FC00
03FC00
07BE00
079E00
0F0F00
0E0700
0C0200
000000
000000
006400
FE63C0
7E73F0
1EF7C0
1EF7C0
0EF780
0FFF80
0FFF00
0FFF00
07FF00
07FE00
07FF00
03FE00
03FE00
03FE00
03DE00
01DE00
01DE00
01DC00
00DC00
015C00
ENDCHAR
STARTCHAR Ycircumflex
ENCODING 374
SWIDTH 688 0
DWIDTH 19 0
BBX 20 33 0 -1
BITMAP
01F000
03F800
03F800
03FC00
07BE00
071E00
0E0F00
0E0700
1C0600
000000
000000
170800
FF0F80
1F8FF0
0FDF80
07DF80
03FF00
01FE00
01FC00
00FC00
00FC00
00FC00
007C00
007C00
007C00
007C00
003800
003800
003800
003800
003800
003800
003800
ENDCHAR
STARTCHAR ycircumflex
ENCODING 375
SWIDTH 604 0
DWIDTH 17 0
BBX 17 34 0 -2
BITMAP
07E000
07F000
07F000
0FF800
0F7800
1E7C00
1C3C00
381E00
100C00
000000
000000
1C2000
FE3E00
3F3F80
0F7E00
077C00
07F800
03F000
03F000
03F000
03F000
01F000
01F000
01E000
01E000
01E000
01E000
01E000
01E000
01E000
01E000
01E000
01E000
010000
ENDCHAR
STARTCHAR Ydieresis
ENCODING 376
SWIDTH 688 0
DWIDTH 19 0
BBX 20 30 0 -1
BITMAP
1F9F80
1F9F80
1F9F80
1F9F80
1F9F80
1F9F80
030000
000000
170800
FF0F80
1F8FF0
0FDF80
07DF80
03FF00
01FE00
01FC00
00FC00
00FC00
00FC00
007C00
007C00
007C00
007C00
003800
003800
003800
003800
003800
003800
003800
ENDCHAR
STARTCHAR Zacute
ENCODING 377
SWIDTH 695 0
DWIDTH 19 0
BBX 19 30 1 -1
BITMAP
000180
000380
000780
000FE0
003FC0
003C00
002000
000000
0FF000
FFFF00
FFFFC0
7FFF80
7FFF00
3FFF00
3FFF00
3FFE00
1FFE00
1CFC00
11F800
01F000
03E000
03C000
07C000
038000
070000
07F000
0FF000
0FF000
0FF000
052000
ENDCHAR
STARTCHAR zacute
ENCODING 378
SWIDTH 622 0
DWIDTH 17 0
BBX 17 31 1 -2
BITMAP
000600
000E00
001F00
003F80
007F00
00F800
008000
000000
1FE000
FFFE00
FFFE00
7FFE00
7FFC00
3FFC00
3FFC00
3FF800
1FF800
1EF800
11E000
11E000
03C000
03C000
038000
038000
078000
07E000
07F000
0FF000
0FF000
05E000
002000
ENDCHAR
STARTCHAR Zdotaccent
ENCODING 379
SWIDTH 695 0
DWIDTH 19 0
BBX 18 32 1 -1
BITMAP
03F800
07F800
03F800
03F000
03F800
03F800
03F800
03F800
020000
000000
0FF000
FFFF00
FFFFC0
7FFF80
7FFF00
3FFF00
3FFF00
3FFE00
1FFE00
1CFC00
11F800
01F000
03E000
03C000
07C000
038000
070000
07F000
0FF000
0FF000
0FF000
052000
ENDCHAR
STARTCHAR zdotaccent
ENCODING 380
SWIDTH 622 0
DWIDTH 17 0
BBX 15 33 1 -2
BITMAP
1FE0
0FE0
0FE0
0FE0
0FE0
0FE0
0FE0
0FE0
0C00
0000
1FE0
FFFE
FFFE
7FFE
7FFC
3FFC
3FFC
3FF8
1FF8
1EF8
11E0
11E0
03C0
03C0
0380
0380
0780
07E0
07F0
0FF0
0FF0
05E0
0020
ENDCHAR
STARTCHAR Zcaron
ENCODING 381
SWIDTH 693 0
DWIDTH 19 0
BBX 18 36 1 -1
BITMAP
0C0C00
1E1E00
0E1E00
0F3C00
0F3C00
07F800
07F800
03F000
03F000
02B000
000000
000000
000000
000000
0FF000
FFFF00
FFFFC0
7FFF80
7FFF00
3FFF00
3FFF00
3FFE00
1FFE00
1CFC00
11F800
01F000
03E000
03C000
07C000
038000
070000
0FF000
0FF000
0FF000
0FF000
052000
ENDCHAR
STARTCHAR zcaron
ENCODING 382
SWIDTH 621 0
DWIDTH 17 0
BBX 15 38 1 -2
BITMAP
1010
3818
3C3C
3C7C
1E78
1EF8
0FF0
0FF0
0FE0
07E0
0040
0000
0000
0000
0000
1FE0
FFFE
FFFE
7FFE
7FFC
3FFC
3FFC
3FF8
1FF8
1EF8
11E0
11E0
03C0
03C0
0380
0380
0780
07E0
07F0
0FF0
0FF0
05E0
0020
ENDCHAR
STARTCHAR DZ
ENCODING 497
SWIDTH 194 0
DWIDTH 5 0
BBX 1 1 0 0
BITMAP
00
ENDCHAR
STARTCHAR Dz
ENCODING 498
SWIDTH 194 0
DWIDTH 5 0
BBX 1 1 0 0
BITMAP
00
ENDCHAR
STARTCHAR dotlessj
ENCODING 567
SWIDTH 458 0
DWIDTH 13 0
BBX 13 22 -1 -1
BITMAP
0B80
07F8
07F0
03F0
03F0
03F0
03E0
03E0
03E0
03E0
03E0
03E0
01E0
03E0
33E0
F3E0
7BE0
7BC0
7FE0
3FC0
3FC0
0740
ENDCHAR
STARTCHAR circumflex
ENCODING 710
SWIDTH 528 0
DWIDTH 15 0
BBX 13 9 1 20
BITMAP
0F80
1FC0
1FC0
3FE0
3DE0
79F0
70F0
E078
4030
ENDCHAR
STARTCHAR caron
ENCODING 711
SWIDTH 486 0
DWIDTH 14 0
BBX 13 10 0 20
BITMAP
2020
F030
7878
78F8
3CF0
3DF0
1FE0
1FE0
1FC0
0F80
ENDCHAR
STARTCHAR breve
ENCODING 728
SWIDTH 464 0
DWIDTH 13 0
BBX 11 8 1 -2
BITMAP
F000
F1E0
71E0
7FE0
7FC0
3F80
0B80
0280
ENDCHAR
STARTCHAR dotaccent
ENCODING 729
SWIDTH 388 0
DWIDTH 11 0
BBX 8 9 1 6
BITMAP
FF
7F
7F
7F
7F
7F
7F
7F
60
ENDCHAR
STARTCHAR ring
ENCODING 730
SWIDTH 370 0
DWIDTH 10 0
BBX 8 8 1 8
BITMAP
3C
7E
E7
63
63
76
7E
18
ENDCHAR
STARTCHAR ogonek
ENCODING 731
SWIDTH 360 0
DWIDTH 10 0
BBX 8 10 1 0
BITMAP
70
70
70
60
E0
70
79
7F
3F
1F
ENDCHAR
STARTCHAR tilde
ENCODING 732
SWIDTH 535 0
DWIDTH 15 0
BBX 13 6 1 -2
BITMAP
21C0
71F0
FFF0
7FF8
3FF0
3C20
ENDCHAR
STARTCHAR hungarumlaut
ENCODING 733
SWIDTH 554 0
DWIDTH 16 0
BBX 14 9 1 20
BITMAP
1860
1C78
3E7C
3CF8
3CF0
78E0
71C0
E180
C100
ENDCHAR
STARTCHAR dotaccentcmb
ENCODING 775
SWIDTH 396 0
DWIDTH 11 0
BBX 8 9 1 10
BITMAP
FF
7F
7F
7F
7F
7F
7F
7F
40
ENDCHAR
STARTCHAR uni030F
ENCODING 783
SWIDTH 549 0
DWIDTH 15 0
BBX 14 9 0 20
BITMAP
0820
3870
FDF0
3CF0
3C78
1E38
0E1C
070C
020C
ENDCHAR
STARTCHAR uni0311
ENCODING 785
SWIDTH 490 0
DWIDTH 14 0
BBX 11 7 1 10
BITMAP
3F80
3FC0
7FC0
79E0
71E0
70E0
F000
ENDCHAR
STARTCHAR uni0326
ENCODING 806
SWIDTH 360 0
DWIDTH 10 0
BBX 7 13 2 -3
BITMAP
C2
FC
FE
FE
FE
FE
FE
0E
0C
1C
1C
1C
18
ENDCHAR
STARTCHAR endash
ENCODING 8211
SWIDTH 478 0
DWIDTH 13 0
BBX 10 5 2 8
BITMAP
FFC0
FF80
FF80
FF80
F780
ENDCHAR
STARTCHAR emdash
ENCODING 8212
SWIDTH 567 0
DWIDTH 16 0
BBX 13 5 2 8
BITMAP
FFF8
FFF0
FFF0
FFF0
F3F0
ENDCHAR
STARTCHAR quoteleft
ENCODING 8216
SWIDTH 373 0
DWIDTH 10 0
BBX 7 14 2 7
BITMAP
60
E0
E0
E0
E0
E0
FE
FE
FE
FE
FE
FE
FE
FE
ENDCHAR
STARTCHAR quoteright
ENCODING 8217
SWIDTH 369 0
DWIDTH 10 0
BBX 8 14 1 7
BITMAP
E0
FE
FF
FF
FF
FE
FF
FF
FF
06
0E
0E
0E
0E
ENDCHAR
STARTCHAR quotesinglbase
ENCODING 8218
SWIDTH 369 0
DWIDTH 10 0
BBX 8 14 1 7
BITMAP
E0
FE
FF
FF
FF
FE
FF
FF
FF
06
0E
0E
0E
0E
ENDCHAR
STARTCHAR quotedblleft
ENCODING 8220
SWIDTH 687 0
DWIDTH 19 0
BBX 16 14 2 7
BITMAP
6030
E070
E070
E070
E070
E060
FEFF
FEFF
FEFF
FEFF
FEFF
FEFF
FE7F
FE7F
ENDCHAR
STARTCHAR quotedblright
ENCODING 8221
SWIDTH 677 0
DWIDTH 19 0
BBX 16 14 1 7
BITMAP
7270
FE7F
FE7F
FE7F
FE7F
FE7F
FE7F
FE7F
FE7F
0607
0E07
0E07
0E07
0E06
ENDCHAR
STARTCHAR quotedblbase
ENCODING 8222
SWIDTH 697 0
DWIDTH 20 0
BBX 17 14 1 -9
BITMAP
7E3F80
FF3F80
FF3F80
FF3F80
FF3F80
FF3F80
FF3F80
FF3F80
070380
060380
0E0380
0E0380
0E0300
080400
ENDCHAR
STARTCHAR ellipsis
ENCODING 8230
SWIDTH 1462 0
DWIDTH 41 0
BBX 39 9 1 1
BITMAP
1F003E003C
FE00FE01FC
7E00FE00FC
7E00FE00FC
7F007E00FE
7F007E00FE
7F007E00FC
7E007E00FC
72006600E4
ENDCHAR
STARTCHAR guilsinglleft
ENCODING 8249
SWIDTH 459 0
DWIDTH 13 0
BBX 11 15 1 2
BITMAP
1FE0
1FC0
1F80
3F00
3F00
7E00
FC00
FC00
7E00
7E00
3F00
1F00
0F80
0FE0
07E0
ENDCHAR
STARTCHAR guilsinglright
ENCODING 8250
SWIDTH 432 0
DWIDTH 12 0
BBX 10 16 1 2
BITMAP
0800
FE00
7E00
7E00
3F00
1F80
1FC0
0FC0
0FC0
0FC0
0F80
1F00
3F00
7E00
FC00
FC00
ENDCHAR
STARTCHAR fraction
ENCODING 8260
SWIDTH 371 0
DWIDTH 10 0
BBX 10 22 0 -1
BITMAP
3F00
FFC0
7FC0
3F80
1F80
1F80
1F00
1F00
1F00
1F00
1F00
1F00
1F00
1F00
1E00
0F00
0E00
0E00
0E00
0E00
0E00
0200
ENDCHAR
STARTCHAR Euro
ENCODING 8364
SWIDTH 587 0
DWIDTH 16 0
BBX 15 27 0 -6
BITMAP
01F0
07F8
0FFC
0FFE
1FFE
1FFE
1FFE
1FFE
1FFE
1FBE
1F3E
8F9E
7FB2
0F00
0F00
7FB0
0F3C
0F3C
07FC
07F8
07F8
0170
0160
0160
0140
0140
0040
ENDCHAR
STARTCHAR trademark
ENCODING 8482
SWIDTH 785 0
DWIDTH 22 0
BBX 22 14 0 7
BITMAP
FF7EFC
7F9EF0
7F9EF0
7F9FF0
7F8FF0
7F8FF0
4E8FF0
0E0FF0
0E0DF0
0E0DF0
0E0770
0E0760
0E0520
0E0000
ENDCHAR
STARTCHAR minus
ENCODING 8722
SWIDTH 478 0
DWIDTH 13 0
BBX 10 5 2 8
BITMAP
FFC0
FF80
FF80
FF80
F780
ENDCHAR
STARTCHAR commaaccent
ENCODING 63171
SWIDTH 360 0
DWIDTH 10 0
BBX 8 14 1 -4
BITMAP
61
FE
FF
FF
FF
FF
FF
FF
7F
06
0E
0E
0E
0E
ENDCHAR
STARTCHAR .notdef
ENCODING -1
SWIDTH 365 0
DWIDTH 10 0
BBX 7 19 1 0
BITMAP
FE
82
82
82
82
82
82
82
82
82
82
82
82
82
82
82
82
82
FE
ENDCHAR
STARTCHAR .null
ENCODING -1
SWIDTH 0 0
DWIDTH 0 0
BBX 1 1 0 0
BITMAP
00
ENDCHAR
STARTCHAR nonmarkingreturn
ENCODING -1
SWIDTH 333 0
DWIDTH 9 0
BBX 1 1 0 0
BITMAP
00
ENDCHAR
ENDFONT
